<svg width="74" height="73" viewBox="0 0 74 73" fill="none" xmlns="http://www.w3.org/2000/svg">
<path d="M3.6875 36.1548V28.1608C3.6875 23.6374 6.65842 19.6218 11.0626 18.1907V0.226562H18.4376V18.1907C22.8418 19.6206 25.8127 23.6374 25.8127 28.1608V36.1548H3.6875Z" fill="#1A1A1A"/>
<path d="M3.81656 26.574C3.73544 27.0937 3.6875 27.6231 3.6875 28.1608V36.1548H25.8127V28.1608C25.8127 27.6231 25.7647 27.0937 25.6836 26.574H3.81656Z" fill="#C1C8D1"/>
<path d="M11.0625 5.01685H18.4376V14.5977H11.0625V5.01685Z" fill="#C1C8D1"/>
<path d="M3.6875 28.1608V34.9417C11.3895 34.7812 18.3786 31.6363 23.6198 26.574H3.81656C3.73544 27.0937 3.6875 27.6231 3.6875 28.1608Z" fill="#DADEE3"/>
<path d="M25.8125 36.1548V28.1608C25.8125 23.6374 28.7834 19.6218 33.1875 18.1907V0.226562H40.5626V18.1907C44.9667 19.6206 47.9376 23.6374 47.9376 28.1608V36.1548H25.8125Z" fill="#1A1A1A"/>
<path d="M25.9416 26.574C25.8604 27.0937 25.8125 27.6231 25.8125 28.1608V36.1548H47.9376V28.1608C47.9376 27.6231 47.8897 27.0937 47.8086 26.574H25.9416Z" fill="#C1C8D1"/>
<path d="M33.1875 5.01685H40.5625V14.5977H33.1875V5.01685Z" fill="#C1C8D1"/>
<path d="M25.8125 28.1608V34.9417C33.5145 34.7812 40.5037 31.6363 45.7449 26.574H25.9416C25.8604 27.0937 25.8125 27.6231 25.8125 28.1608Z" fill="#DADEE3"/>
<path d="M47.9375 36.1548V28.1608C47.9375 23.6374 50.9084 19.6218 55.3125 18.1907V0.226562H62.6876V18.1907C67.0917 19.6206 70.0626 23.6374 70.0626 28.1608V36.1548H47.9375Z" fill="#1A1A1A"/>
<path d="M48.0666 26.574C47.9854 27.0937 47.9375 27.6231 47.9375 28.1608V36.1548H70.0626V28.1608C70.0626 27.6231 70.0147 27.0937 69.9336 26.574H48.0666Z" fill="#C1C8D1"/>
<path d="M55.3125 5.01685H62.6875V14.5977H55.3125V5.01685Z" fill="#C1C8D1"/>
<path d="M47.9375 28.1608V34.9417C55.6395 34.7812 62.6286 31.6363 67.8698 26.574H48.0666C47.9854 27.0937 47.9375 27.6231 47.9375 28.1608V28.1608Z" fill="#DADEE3"/>
<g filter="url(#filter0_i)">
<path d="M0 36.1548H73.7505V72.0831H0V36.1548Z" fill="#A7A7A7"/>
</g>
<path d="M29.5 40.9453H44.2501V48.131H29.5V40.9453Z" fill="#C1C8D1"/>
<path d="M11.0625 36.1548H13.5208V72.0831H11.0625V36.1548Z" fill="#5C5C5C"/>
<path d="M23.3555 36.1548H25.8137V72.0831H23.3555V36.1548Z" fill="#5C5C5C"/>
<path d="M47.9375 36.1548H50.3959V72.0831H47.9375V36.1548Z" fill="#5C5C5C"/>
<path d="M60.2305 36.1548H62.6887V72.0831H60.2305V36.1548Z" fill="#5C5C5C"/>
<path d="M35.6445 36.1548H38.1029V40.9452H35.6445V36.1548Z" fill="#5C5C5C"/>
<path d="M35.6445 48.1309H38.1029V72.0831H35.6445V48.1309Z" fill="#5C5C5C"/>
<defs>
<filter id="filter0_i" x="0" y="36.1548" width="73.7505" height="42.9283" filterUnits="userSpaceOnUse" color-interpolation-filters="sRGB">
<feFlood flood-opacity="0" result="BackgroundImageFix"/>
<feBlend mode="normal" in="SourceGraphic" in2="BackgroundImageFix" result="shape"/>
<feColorMatrix in="SourceAlpha" type="matrix" values="0 0 0 0 0 0 0 0 0 0 0 0 0 0 0 0 0 0 127 0" result="hardAlpha"/>
<feOffset dy="10"/>
<feGaussianBlur stdDeviation="3.5"/>
<feComposite in2="hardAlpha" operator="arithmetic" k2="-1" k3="1"/>
<feColorMatrix type="matrix" values="0 0 0 0 0 0 0 0 0 0 0 0 0 0 0 0 0 0 0.25 0"/>
<feBlend mode="normal" in2="shape" result="effect1_innerShadow"/>
</filter>
</defs>
</svg>
