<svg width="320" height="354" viewBox="0 0 320 354" fill="none" xmlns="http://www.w3.org/2000/svg">
<g filter="url(#filter0_i)">
<rect width="320" height="354" fill="#C4C4C4"/>
</g>
<path d="M50.7344 290.578C50.7031 290.578 50.6562 290.625 50.5938 290.719C50.5625 290.781 50.5156 290.828 50.4531 290.859C50.0781 291.516 49.7812 292.156 49.5625 292.781C49.3438 293.406 49.125 294.125 48.9062 294.938C48.6875 295.25 48.4531 295.453 48.2031 295.547C47.9844 295.609 47.7188 295.641 47.4062 295.641C46.6875 295.641 46.3281 295.328 46.3281 294.703C46.6719 293.328 46.9688 292.219 47.2188 291.375C47.4688 290.5 47.6875 289.766 47.875 289.172C48.0625 288.547 48.2188 288 48.3438 287.531C48.5 287.062 48.6562 286.594 48.8125 286.125C48.9688 285.625 49.125 285.047 49.2812 284.391C49.4688 283.734 49.6719 282.922 49.8906 281.953C50.1406 280.953 50.4219 279.734 50.7344 278.297C51.0469 276.859 51.4219 275.094 51.8594 273L53.4531 269.062C53.5781 268.781 53.7188 268.609 53.875 268.547C54.0625 268.453 54.2656 268.406 54.4844 268.406C54.7656 268.406 55.0312 268.5 55.2812 268.688C55.5312 268.844 55.6875 269.078 55.75 269.391C55.75 269.453 55.75 269.578 55.75 269.766C55.75 269.953 55.75 270.156 55.75 270.375C55.7812 270.562 55.7969 270.75 55.7969 270.938C55.7969 271.094 55.7969 271.219 55.7969 271.312C55.7969 272.969 55.6562 274.391 55.375 275.578C55.125 276.766 54.7656 277.875 54.2969 278.906C53.8594 279.938 53.3594 280.969 52.7969 282C52.2656 283.031 51.7344 284.219 51.2031 285.562C52.0469 284.594 53.0156 283.766 54.1094 283.078C55.2031 282.391 56.4062 282.047 57.7188 282.047C57.8438 282.047 58.0781 282.062 58.4219 282.094C58.7969 282.125 59.0469 282.141 59.1719 282.141C59.8281 282.328 60.3906 282.688 60.8594 283.219C61.3594 283.75 61.75 284.359 62.0312 285.047C62.3125 285.703 62.5156 286.406 62.6406 287.156C62.7656 287.875 62.8281 288.531 62.8281 289.125C62.8281 289.75 62.7656 290.422 62.6406 291.141C62.5156 291.828 62.3594 292.484 62.1719 293.109H62.6406L69.4375 291.328C70.0625 291.141 70.6875 290.812 71.3125 290.344C71.9688 289.875 72.5 289.438 72.9062 289.031H73C73.0312 289.031 73.0469 289.031 73.0469 289.031C73.0781 289 73.1094 288.984 73.1406 288.984C73.4219 288.984 73.6406 289.078 73.7969 289.266C73.9844 289.422 74.0781 289.641 74.0781 289.922C74.0781 290.484 73.8438 291 73.375 291.469C72.9375 291.938 72.4062 292.344 71.7812 292.688C71.1562 293 70.5156 293.281 69.8594 293.531C69.2031 293.75 68.6875 293.906 68.3125 294C68 294.094 67.4531 294.25 66.6719 294.469C65.9219 294.656 65.1094 294.859 64.2344 295.078C63.3594 295.297 62.5156 295.5 61.7031 295.688C60.9219 295.875 60.3906 296 60.1094 296.062C59.6406 296.312 59.2031 296.547 58.7969 296.766C58.3906 296.953 57.9375 297.047 57.4375 297.047C56.7188 297.047 55.9219 296.875 55.0469 296.531C54.2031 296.156 53.4219 295.688 52.7031 295.125C52.0156 294.531 51.4531 293.844 51.0156 293.062C50.6094 292.281 50.5156 291.453 50.7344 290.578ZM51.8594 289.875C52.3281 289.875 52.7031 290.078 52.9844 290.484C53.2969 290.859 53.6406 291.281 54.0156 291.75C54.3906 292.219 54.8594 292.641 55.4219 293.016C56.0156 293.391 56.8594 293.578 57.9531 293.578H58.9375C59.2188 293.297 59.4375 292.938 59.5938 292.5C59.7812 292.062 59.9062 291.625 59.9688 291.188C60.0625 290.719 60.1094 290.25 60.1094 289.781C60.1094 289.312 60.1094 288.875 60.1094 288.469C60.1094 288.031 60.0625 287.578 59.9688 287.109C59.875 286.609 59.7188 286.156 59.5 285.75C59.2812 285.344 58.9688 285.016 58.5625 284.766C58.1875 284.516 57.7344 284.391 57.2031 284.391C56.5781 284.391 55.9219 284.594 55.2344 285C54.5781 285.375 53.9688 285.859 53.4062 286.453C52.8438 287.047 52.3438 287.672 51.9062 288.328C51.4688 288.984 51.1562 289.578 50.9688 290.109C51.125 289.984 51.2656 289.922 51.3906 289.922C51.5469 289.891 51.7031 289.875 51.8594 289.875ZM71.5 295.594C71.5 295.5 71.5 295.266 71.5 294.891C71.5 294.516 71.5 294.266 71.5 294.141C70.9688 292.266 70.8906 290.422 71.2656 288.609C71.6719 286.797 72.375 285.172 73.375 283.734C74.4062 282.266 75.7031 281.047 77.2656 280.078C78.8594 279.078 80.5938 278.469 82.4688 278.25H83.3125C84 278.25 84.5625 278.406 85 278.719C85.4688 279 85.8281 279.375 86.0781 279.844C86.3594 280.312 86.5469 280.844 86.6406 281.438C86.7656 282.031 86.8281 282.625 86.8281 283.219C86.8281 284.031 86.7344 284.828 86.5469 285.609C86.3906 286.359 86.2031 287.125 85.9844 287.906C85.7969 288.688 85.6094 289.469 85.4219 290.25C85.2656 291 85.1875 291.797 85.1875 292.641V292.922C85.2188 292.984 85.25 293.172 85.2812 293.484C85.3438 293.766 85.3906 293.938 85.4219 294C85.4844 294 85.6406 294.016 85.8906 294.047C86.1406 294.047 86.2969 294.047 86.3594 294.047C86.6719 294.047 86.9688 294.047 87.25 294.047C87.5625 294.016 87.875 293.938 88.1875 293.812L97.0938 289.688C97.125 289.688 97.1719 289.688 97.2344 289.688C97.3281 289.656 97.3906 289.641 97.4219 289.641C97.7344 289.641 97.9844 289.734 98.1719 289.922C98.3906 290.109 98.5 290.359 98.5 290.672C98.5 290.828 98.4844 290.984 98.4531 291.141C98.4531 291.266 98.375 291.391 98.2188 291.516C98 291.672 97.5938 291.891 97 292.172C96.4375 292.453 95.8281 292.766 95.1719 293.109C94.5156 293.453 93.8906 293.781 93.2969 294.094C92.7344 294.406 92.3281 294.609 92.0781 294.703C91.6406 294.953 91.1562 295.188 90.625 295.406C90.0938 295.594 89.5469 295.781 88.9844 295.969C88.4219 296.156 87.8594 296.312 87.2969 296.438C86.7656 296.531 86.2812 296.578 85.8438 296.578C85.1562 296.578 84.5938 296.469 84.1562 296.25C83.7188 296 83.3906 295.688 83.1719 295.312C82.9531 294.906 82.7969 294.438 82.7031 293.906C82.6406 293.344 82.6406 292.766 82.7031 292.172C82.0781 292.672 81.4062 293.203 80.6875 293.766C79.9688 294.328 79.2188 294.844 78.4375 295.312C77.6562 295.781 76.8594 296.188 76.0469 296.531C75.2344 296.875 74.4062 297.047 73.5625 297.047C73.0938 297.047 72.6719 296.938 72.2969 296.719C71.9219 296.469 71.6562 296.094 71.5 295.594ZM74.0312 294.609C74.75 294.609 75.5469 294.406 76.4219 294C77.2969 293.562 78.1562 293.031 79 292.406C79.8438 291.781 80.6094 291.125 81.2969 290.438C81.9844 289.719 82.5156 289.078 82.8906 288.516C82.9219 287.578 83.0469 286.688 83.2656 285.844C83.5156 284.969 83.6406 284.078 83.6406 283.172C83.6406 283.109 83.625 283.016 83.5938 282.891C83.5938 282.766 83.5938 282.672 83.5938 282.609C83.1875 282.266 82.8438 282.062 82.5625 282C82.2812 281.938 81.9062 281.906 81.4375 281.906C81.375 281.906 81.2344 281.906 81.0156 281.906C80.8281 281.906 80.7031 281.922 80.6406 281.953C80.4531 282.109 80.1406 282.406 79.7031 282.844C79.2656 283.25 78.7969 283.703 78.2969 284.203C77.8281 284.703 77.375 285.172 76.9375 285.609C76.5312 286.047 76.25 286.344 76.0938 286.5C76.0625 286.5 76 286.562 75.9062 286.688C75.8125 286.781 75.7031 286.906 75.5781 287.062C75.4844 287.219 75.3906 287.375 75.2969 287.531C75.2344 287.656 75.1875 287.766 75.1562 287.859L74.0312 293.344V294.609ZM97.4688 284.438C97.5312 284.312 97.6562 284.125 97.8438 283.875C98.0312 283.594 98.125 283.359 98.125 283.172V283.031C98.125 283 98.0938 282.969 98.0312 282.938C97.9688 282.875 97.9219 282.844 97.8906 282.844H97.0469C96.2344 283.094 95.3281 283.266 94.3281 283.359C93.2969 283.453 92.3125 283.484 91.375 283.453C90.4062 283.422 89.5781 283.344 88.8906 283.219C88.2031 283.062 87.7969 282.891 87.6719 282.703C87.5469 282.516 87.7812 282.297 88.375 282.047C88.9688 281.766 90.0938 281.484 91.75 281.203C91.8438 281.203 92.0625 281.172 92.4062 281.109C92.7188 281.016 93.0781 280.938 93.4844 280.875C93.8594 280.812 94.2188 280.75 94.5625 280.688C94.9062 280.594 95.125 280.547 95.2188 280.547C95.3438 280.516 95.6094 280.5 96.0156 280.5C96.4219 280.469 96.8281 280.438 97.2344 280.406C97.6719 280.375 98.0781 280.359 98.4531 280.359C98.8594 280.359 99.1406 280.359 99.2969 280.359L99.5312 280.078L103.188 273.938C103.312 273.719 103.531 273.547 103.844 273.422C104.188 273.297 104.453 273.234 104.641 273.234C105.047 273.234 105.328 273.406 105.484 273.75C105.641 274.062 105.719 274.375 105.719 274.688C105.719 274.719 105.703 274.75 105.672 274.781C105.672 274.812 105.672 274.844 105.672 274.875V275.062L103.609 280.078V280.359C103.672 280.172 103.781 280.078 103.938 280.078C104.125 280.078 104.266 280.078 104.359 280.078C104.828 280.078 105.281 280.234 105.719 280.547C106.156 280.859 106.375 281.281 106.375 281.812C106.375 282.062 106.297 282.266 106.141 282.422C105.984 282.578 105.797 282.703 105.578 282.797C105.359 282.891 105.125 282.969 104.875 283.031C104.625 283.062 104.406 283.078 104.219 283.078C103.844 283.078 103.484 283.031 103.141 282.938C102.828 282.844 102.484 282.797 102.109 282.797C101.766 282.797 101.453 282.984 101.172 283.359C100.891 283.703 100.625 284.172 100.375 284.766C100.156 285.328 99.9688 285.969 99.8125 286.688C99.6562 287.406 99.5156 288.109 99.3906 288.797C99.2656 289.484 99.1719 290.125 99.1094 290.719C99.0781 291.312 99.0625 291.766 99.0625 292.078C99.0625 292.203 99.0625 292.453 99.0625 292.828C99.0938 293.203 99.1094 293.453 99.1094 293.578C99.1406 293.766 99.2188 293.938 99.3438 294.094C99.4688 294.219 99.5938 294.359 99.7188 294.516H100.797C102.047 294.516 103.281 294.234 104.5 293.672C105.75 293.109 106.922 292.469 108.016 291.75C108.078 291.719 108.219 291.578 108.438 291.328C108.688 291.047 108.953 290.781 109.234 290.531C109.516 290.25 109.766 290 109.984 289.781C110.234 289.562 110.406 289.453 110.5 289.453C110.719 289.453 110.922 289.562 111.109 289.781C111.297 290 111.391 290.234 111.391 290.484C111.391 291.078 111.172 291.656 110.734 292.219C110.328 292.781 109.797 293.312 109.141 293.812C108.484 294.281 107.734 294.719 106.891 295.125C106.047 295.531 105.203 295.875 104.359 296.156C103.547 296.438 102.766 296.656 102.016 296.812C101.297 296.969 100.703 297.047 100.234 297.047C99.7969 297.047 99.3438 297 98.875 296.906C98.4062 296.781 97.9844 296.594 97.6094 296.344C97.2344 296.094 96.9219 295.781 96.6719 295.406C96.4219 295.031 96.2969 294.562 96.2969 294V288.797L97.4688 284.438ZM119.969 286.453C119.906 286.328 119.797 286.156 119.641 285.938C119.516 285.688 119.359 285.562 119.172 285.562C118.578 285.562 117.969 285.828 117.344 286.359C116.75 286.859 116.172 287.469 115.609 288.188C115.078 288.875 114.609 289.578 114.203 290.297C113.828 291.016 113.594 291.578 113.5 291.984C113.375 292.391 113.312 292.875 113.312 293.438C113.312 294 113.266 294.531 113.172 295.031C113.109 295.531 112.938 295.953 112.656 296.297C112.406 296.641 111.953 296.812 111.297 296.812C110.891 296.812 110.609 296.734 110.453 296.578C110.328 296.391 110.266 296.094 110.266 295.688C110.484 294.188 110.672 292.953 110.828 291.984C111.016 291.016 111.172 290.172 111.297 289.453C111.453 288.703 111.594 287.984 111.719 287.297C111.875 286.578 112.047 285.719 112.234 284.719C112.422 283.719 112.625 282.5 112.844 281.062C113.062 279.594 113.328 277.734 113.641 275.484C113.641 275.016 113.672 274.359 113.734 273.516C113.797 272.641 113.906 271.719 114.062 270.75C114.25 269.75 114.484 268.75 114.766 267.75C115.047 266.719 115.391 265.797 115.797 264.984C116.234 264.172 116.734 263.516 117.297 263.016C117.859 262.484 118.516 262.219 119.266 262.219C119.797 262.219 120.219 262.406 120.531 262.781C120.875 263.125 121.125 263.547 121.281 264.047C121.469 264.547 121.578 265.078 121.609 265.641C121.641 266.172 121.656 266.609 121.656 266.953C121.656 267.734 121.594 268.484 121.469 269.203C121.344 269.891 121.188 270.594 121 271.312C120.812 272 120.609 272.703 120.391 273.422C120.172 274.109 119.984 274.797 119.828 275.484L116.828 281.203L115.141 284.859L115.375 285.375C116.031 284.594 116.703 284 117.391 283.594C118.078 283.156 118.938 282.906 119.969 282.844C120.438 282.812 120.828 282.953 121.141 283.266C121.484 283.578 121.766 283.984 121.984 284.484C122.203 284.953 122.359 285.438 122.453 285.938C122.578 286.438 122.656 286.844 122.688 287.156C122.688 287.344 122.672 287.641 122.641 288.047C122.609 288.453 122.578 288.922 122.547 289.453C122.516 289.984 122.484 290.547 122.453 291.141C122.453 291.703 122.484 292.234 122.547 292.734C122.609 293.234 122.734 293.672 122.922 294.047C123.141 294.391 123.422 294.594 123.766 294.656C124.984 294.5 126.062 294.297 127 294.047C127.969 293.766 128.812 293.391 129.531 292.922C130.25 292.422 130.844 291.797 131.312 291.047C131.812 290.297 132.188 289.375 132.438 288.281C132.656 287.969 132.969 287.812 133.375 287.812C133.844 287.812 134.141 287.984 134.266 288.328C134.422 288.672 134.5 289.047 134.5 289.453C134.5 290.703 134.094 291.812 133.281 292.781C132.5 293.719 131.5 294.5 130.281 295.125C129.062 295.75 127.75 296.234 126.344 296.578C124.938 296.891 123.641 297.047 122.453 297.047C121.703 297.047 121.188 296.797 120.906 296.297C120.625 295.766 120.453 295.141 120.391 294.422C120.359 293.672 120.359 292.922 120.391 292.172C120.422 291.422 120.422 290.812 120.391 290.344C120.391 290.188 120.375 289.938 120.344 289.594C120.312 289.219 120.266 288.828 120.203 288.422C120.172 288.016 120.125 287.625 120.062 287.25C120 286.875 119.969 286.609 119.969 286.453ZM116.125 275.203C116.125 275.297 116.125 275.453 116.125 275.672C116.125 275.891 116.125 276.094 116.125 276.281C116.156 276.469 116.172 276.641 116.172 276.797C116.172 276.953 116.172 277.047 116.172 277.078L116.406 277.312C116.719 277.125 117 276.797 117.25 276.328C117.531 275.859 117.781 275.297 118 274.641C118.219 273.984 118.406 273.297 118.562 272.578C118.75 271.828 118.906 271.094 119.031 270.375C119.156 269.656 119.25 269 119.312 268.406C119.406 267.812 119.453 267.328 119.453 266.953C119.453 266.828 119.438 266.594 119.406 266.25C119.406 265.906 119.391 265.703 119.359 265.641L119.125 265.172C118.375 265.766 117.797 266.469 117.391 267.281C116.984 268.094 116.688 268.938 116.5 269.812C116.312 270.688 116.203 271.594 116.172 272.531C116.141 273.469 116.125 274.359 116.125 275.203ZM134.312 284.438C134.375 284.312 134.5 284.125 134.688 283.875C134.875 283.594 134.969 283.359 134.969 283.172V283.031C134.969 283 134.938 282.969 134.875 282.938C134.812 282.875 134.766 282.844 134.734 282.844H133.891C133.078 283.094 132.172 283.266 131.172 283.359C130.141 283.453 129.156 283.484 128.219 283.453C127.25 283.422 126.422 283.344 125.734 283.219C125.047 283.062 124.641 282.891 124.516 282.703C124.391 282.516 124.625 282.297 125.219 282.047C125.812 281.766 126.938 281.484 128.594 281.203C128.688 281.203 128.906 281.172 129.25 281.109C129.562 281.016 129.922 280.938 130.328 280.875C130.703 280.812 131.062 280.75 131.406 280.688C131.75 280.594 131.969 280.547 132.062 280.547C132.188 280.516 132.453 280.5 132.859 280.5C133.266 280.469 133.672 280.438 134.078 280.406C134.516 280.375 134.922 280.359 135.297 280.359C135.703 280.359 135.984 280.359 136.141 280.359L136.375 280.078L140.031 273.938C140.156 273.719 140.375 273.547 140.688 273.422C141.031 273.297 141.297 273.234 141.484 273.234C141.891 273.234 142.172 273.406 142.328 273.75C142.484 274.062 142.562 274.375 142.562 274.688C142.562 274.719 142.547 274.75 142.516 274.781C142.516 274.812 142.516 274.844 142.516 274.875V275.062L140.453 280.078V280.359C140.516 280.172 140.625 280.078 140.781 280.078C140.969 280.078 141.109 280.078 141.203 280.078C141.672 280.078 142.125 280.234 142.562 280.547C143 280.859 143.219 281.281 143.219 281.812C143.219 282.062 143.141 282.266 142.984 282.422C142.828 282.578 142.641 282.703 142.422 282.797C142.203 282.891 141.969 282.969 141.719 283.031C141.469 283.062 141.25 283.078 141.062 283.078C140.688 283.078 140.328 283.031 139.984 282.938C139.672 282.844 139.328 282.797 138.953 282.797C138.609 282.797 138.297 282.984 138.016 283.359C137.734 283.703 137.469 284.172 137.219 284.766C137 285.328 136.812 285.969 136.656 286.688C136.5 287.406 136.359 288.109 136.234 288.797C136.109 289.484 136.016 290.125 135.953 290.719C135.922 291.312 135.906 291.766 135.906 292.078C135.906 292.203 135.906 292.453 135.906 292.828C135.938 293.203 135.953 293.453 135.953 293.578C135.984 293.766 136.062 293.938 136.188 294.094C136.312 294.219 136.438 294.359 136.562 294.516H137.641C138.891 294.516 140.125 294.234 141.344 293.672C142.594 293.109 143.766 292.469 144.859 291.75C144.922 291.719 145.062 291.578 145.281 291.328C145.531 291.047 145.797 290.781 146.078 290.531C146.359 290.25 146.609 290 146.828 289.781C147.078 289.562 147.25 289.453 147.344 289.453C147.562 289.453 147.766 289.562 147.953 289.781C148.141 290 148.234 290.234 148.234 290.484C148.234 291.078 148.016 291.656 147.578 292.219C147.172 292.781 146.641 293.312 145.984 293.812C145.328 294.281 144.578 294.719 143.734 295.125C142.891 295.531 142.047 295.875 141.203 296.156C140.391 296.438 139.609 296.656 138.859 296.812C138.141 296.969 137.547 297.047 137.078 297.047C136.641 297.047 136.188 297 135.719 296.906C135.25 296.781 134.828 296.594 134.453 296.344C134.078 296.094 133.766 295.781 133.516 295.406C133.266 295.031 133.141 294.562 133.141 294V288.797L134.312 284.438ZM146.312 291.938C146.438 291.5 146.516 291.047 146.547 290.578C146.609 290.109 146.672 289.609 146.734 289.078C146.828 288.547 146.969 287.953 147.156 287.297C147.375 286.609 147.703 285.844 148.141 285C148.578 284.156 149.156 283.188 149.875 282.094C150.625 280.969 151.594 279.688 152.781 278.25C152.906 278.062 153.062 277.906 153.25 277.781C153.438 277.625 153.641 277.547 153.859 277.547C154.234 277.547 154.562 277.703 154.844 278.016C155.125 278.297 155.266 278.609 155.266 278.953C155.266 278.984 155.234 279.094 155.172 279.281C155.141 279.438 155.109 279.547 155.078 279.609C154.734 280.328 154.406 280.969 154.094 281.531C153.781 282.094 153.453 282.641 153.109 283.172C152.766 283.672 152.375 284.203 151.938 284.766C151.531 285.328 151.047 285.969 150.484 286.688C150.109 287.625 149.781 288.5 149.5 289.312C149.219 290.125 149.078 291.031 149.078 292.031C149.078 292.531 149.094 292.938 149.125 293.25C149.188 293.562 149.344 293.984 149.594 294.516H150.109C151.016 294.516 152.047 294.156 153.203 293.438C154.391 292.688 155.547 291.812 156.672 290.812C157.828 289.781 158.875 288.734 159.812 287.672C160.75 286.609 161.438 285.75 161.875 285.094C161.938 285.031 162.016 284.891 162.109 284.672C162.234 284.422 162.312 284.266 162.344 284.203C162.406 284.016 162.516 283.703 162.672 283.266C162.828 282.797 162.984 282.312 163.141 281.812C163.328 281.312 163.5 280.844 163.656 280.406C163.812 279.938 163.922 279.609 163.984 279.422C164.047 279.141 164.172 278.984 164.359 278.953C164.547 278.922 164.734 278.906 164.922 278.906C165.484 278.906 165.844 279.031 166 279.281C166.156 279.5 166.234 279.875 166.234 280.406V281.203C165.922 282.047 165.641 282.828 165.391 283.547C165.172 284.266 164.953 284.969 164.734 285.656C164.547 286.344 164.406 287.031 164.312 287.719C164.219 288.406 164.172 289.156 164.172 289.969C164.172 290.062 164.156 290.281 164.125 290.625C164.125 290.969 164.141 291.328 164.172 291.703C164.234 292.047 164.328 292.375 164.453 292.688C164.609 292.969 164.828 293.109 165.109 293.109C165.859 293.109 166.625 293.016 167.406 292.828C168.219 292.609 169.031 292.344 169.844 292.031C170.656 291.688 171.422 291.312 172.141 290.906C172.891 290.5 173.594 290.094 174.25 289.688C174.406 289.625 174.594 289.484 174.812 289.266C175.031 289.047 175.266 288.844 175.516 288.656C175.766 288.438 176.016 288.25 176.266 288.094C176.516 287.938 176.75 287.859 176.969 287.859C177.594 287.859 177.906 288.172 177.906 288.797C177.906 289.266 177.625 289.766 177.062 290.297C176.5 290.797 175.781 291.297 174.906 291.797C174.062 292.297 173.109 292.766 172.047 293.203C170.984 293.641 169.953 294.031 168.953 294.375C167.984 294.688 167.109 294.953 166.328 295.172C165.547 295.359 164.984 295.453 164.641 295.453C164.516 295.453 164.281 295.453 163.938 295.453C163.625 295.422 163.406 295.406 163.281 295.406C162.781 295.281 162.391 295 162.109 294.562C161.828 294.125 161.609 293.641 161.453 293.109C161.328 292.547 161.25 292 161.219 291.469C161.188 290.906 161.172 290.453 161.172 290.109C161.078 290.172 160.953 290.25 160.797 290.344C160.672 290.406 160.594 290.484 160.562 290.578C160.312 290.797 159.891 291.141 159.297 291.609C158.734 292.047 158.109 292.531 157.422 293.062C156.766 293.562 156.141 294.031 155.547 294.469C154.984 294.906 154.594 295.219 154.375 295.406C153.75 295.875 153.062 296.266 152.312 296.578C151.562 296.891 150.797 297.047 150.016 297.047C149.203 297.047 148.562 296.922 148.094 296.672C147.625 296.391 147.25 296.031 146.969 295.594C146.719 295.125 146.547 294.578 146.453 293.953C146.359 293.328 146.312 292.656 146.312 291.938ZM180.812 290.578C180.781 290.578 180.734 290.625 180.672 290.719C180.641 290.781 180.594 290.828 180.531 290.859C180.156 291.516 179.859 292.156 179.641 292.781C179.422 293.406 179.203 294.125 178.984 294.938C178.766 295.25 178.531 295.453 178.281 295.547C178.062 295.609 177.797 295.641 177.484 295.641C176.766 295.641 176.406 295.328 176.406 294.703C176.75 293.328 177.047 292.219 177.297 291.375C177.547 290.5 177.766 289.766 177.953 289.172C178.141 288.547 178.297 288 178.422 287.531C178.578 287.062 178.734 286.594 178.891 286.125C179.047 285.625 179.203 285.047 179.359 284.391C179.547 283.734 179.75 282.922 179.969 281.953C180.219 280.953 180.5 279.734 180.812 278.297C181.125 276.859 181.5 275.094 181.938 273L183.531 269.062C183.656 268.781 183.797 268.609 183.953 268.547C184.141 268.453 184.344 268.406 184.562 268.406C184.844 268.406 185.109 268.5 185.359 268.688C185.609 268.844 185.766 269.078 185.828 269.391C185.828 269.453 185.828 269.578 185.828 269.766C185.828 269.953 185.828 270.156 185.828 270.375C185.859 270.562 185.875 270.75 185.875 270.938C185.875 271.094 185.875 271.219 185.875 271.312C185.875 272.969 185.734 274.391 185.453 275.578C185.203 276.766 184.844 277.875 184.375 278.906C183.938 279.938 183.438 280.969 182.875 282C182.344 283.031 181.812 284.219 181.281 285.562C182.125 284.594 183.094 283.766 184.188 283.078C185.281 282.391 186.484 282.047 187.797 282.047C187.922 282.047 188.156 282.062 188.5 282.094C188.875 282.125 189.125 282.141 189.25 282.141C189.906 282.328 190.469 282.688 190.938 283.219C191.438 283.75 191.828 284.359 192.109 285.047C192.391 285.703 192.594 286.406 192.719 287.156C192.844 287.875 192.906 288.531 192.906 289.125C192.906 289.75 192.844 290.422 192.719 291.141C192.594 291.828 192.438 292.484 192.25 293.109H192.719L199.516 291.328C200.141 291.141 200.766 290.812 201.391 290.344C202.047 289.875 202.578 289.438 202.984 289.031H203.078C203.109 289.031 203.125 289.031 203.125 289.031C203.156 289 203.188 288.984 203.219 288.984C203.5 288.984 203.719 289.078 203.875 289.266C204.062 289.422 204.156 289.641 204.156 289.922C204.156 290.484 203.922 291 203.453 291.469C203.016 291.938 202.484 292.344 201.859 292.688C201.234 293 200.594 293.281 199.938 293.531C199.281 293.75 198.766 293.906 198.391 294C198.078 294.094 197.531 294.25 196.75 294.469C196 294.656 195.188 294.859 194.312 295.078C193.438 295.297 192.594 295.5 191.781 295.688C191 295.875 190.469 296 190.188 296.062C189.719 296.312 189.281 296.547 188.875 296.766C188.469 296.953 188.016 297.047 187.516 297.047C186.797 297.047 186 296.875 185.125 296.531C184.281 296.156 183.5 295.688 182.781 295.125C182.094 294.531 181.531 293.844 181.094 293.062C180.688 292.281 180.594 291.453 180.812 290.578ZM181.938 289.875C182.406 289.875 182.781 290.078 183.062 290.484C183.375 290.859 183.719 291.281 184.094 291.75C184.469 292.219 184.938 292.641 185.5 293.016C186.094 293.391 186.938 293.578 188.031 293.578H189.016C189.297 293.297 189.516 292.938 189.672 292.5C189.859 292.062 189.984 291.625 190.047 291.188C190.141 290.719 190.188 290.25 190.188 289.781C190.188 289.312 190.188 288.875 190.188 288.469C190.188 288.031 190.141 287.578 190.047 287.109C189.953 286.609 189.797 286.156 189.578 285.75C189.359 285.344 189.047 285.016 188.641 284.766C188.266 284.516 187.812 284.391 187.281 284.391C186.656 284.391 186 284.594 185.312 285C184.656 285.375 184.047 285.859 183.484 286.453C182.922 287.047 182.422 287.672 181.984 288.328C181.547 288.984 181.234 289.578 181.047 290.109C181.203 289.984 181.344 289.922 181.469 289.922C181.625 289.891 181.781 289.875 181.938 289.875ZM226.281 319.875C226.125 319.406 225.984 318.969 225.859 318.562C225.766 318.156 225.703 317.766 225.672 317.391C225.641 317.047 225.609 316.688 225.578 316.312C225.578 315.969 225.578 315.547 225.578 315.047C225.578 314.984 225.578 314.859 225.578 314.672C225.578 314.516 225.578 314.328 225.578 314.109C225.578 313.922 225.578 313.734 225.578 313.547C225.609 313.391 225.625 313.281 225.625 313.219C225.969 311.688 226.344 310.172 226.75 308.672C227.188 307.203 227.703 305.766 228.297 304.359C228.891 302.984 229.609 301.672 230.453 300.422C231.297 299.203 232.344 298.062 233.594 297C233.625 296.844 233.672 296.531 233.734 296.062C233.797 295.594 233.875 295.109 233.969 294.609C234.062 294.109 234.125 293.641 234.156 293.203C234.219 292.734 234.266 292.391 234.297 292.172C234.297 292.109 234.281 291.969 234.25 291.75C234.25 291.5 234.25 291.344 234.25 291.281H234.109C233.016 291.844 231.969 292.344 230.969 292.781C229.969 293.188 228.875 293.391 227.688 293.391C227.031 293.391 226.469 293.281 226 293.062C225.562 292.844 225.203 292.547 224.922 292.172C224.641 291.797 224.422 291.359 224.266 290.859C224.141 290.359 224.062 289.812 224.031 289.219L225.156 285.797C225.438 285.016 225.781 284.188 226.188 283.312C226.625 282.406 227.109 281.547 227.641 280.734C228.203 279.922 228.844 279.188 229.562 278.531C230.281 277.844 231.094 277.359 232 277.078C233.219 276.891 234.344 276.922 235.375 277.172C236.438 277.422 237.359 277.781 238.141 278.25C238.922 278.719 239.547 279.234 240.016 279.797C240.516 280.328 240.812 280.797 240.906 281.203C240.844 281.672 240.703 282.172 240.484 282.703C240.266 283.203 240.016 283.719 239.734 284.25C239.484 284.75 239.219 285.219 238.938 285.656C238.688 286.062 238.5 286.406 238.375 286.688C238.125 287.25 237.906 287.844 237.719 288.469C237.531 289.094 237.359 289.734 237.203 290.391C237.078 291.047 236.969 291.719 236.875 292.406C236.812 293.062 236.781 293.672 236.781 294.234V294.938C238.375 294 240.094 293.266 241.938 292.734C243.781 292.203 245.609 291.938 247.422 291.938C247.641 291.938 247.922 291.938 248.266 291.938C248.641 291.938 248.984 291.984 249.297 292.078C249.641 292.141 249.938 292.281 250.188 292.5C250.438 292.688 250.562 292.969 250.562 293.344C250.562 293.938 250.234 294.234 249.578 294.234C249.484 294.234 249.266 294.219 248.922 294.188C248.578 294.125 248.344 294.062 248.219 294C248 294.031 247.625 294.094 247.094 294.188C246.562 294.281 245.984 294.391 245.359 294.516C244.734 294.641 244.156 294.766 243.625 294.891C243.094 295.016 242.719 295.094 242.5 295.125C242.406 295.156 242.219 295.234 241.938 295.359C241.688 295.453 241.406 295.562 241.094 295.688C240.781 295.812 240.469 295.938 240.156 296.062C239.875 296.156 239.688 296.25 239.594 296.344C239.344 296.406 239.047 296.531 238.703 296.719C238.391 296.875 238.078 297.031 237.766 297.188C237.453 297.375 237.172 297.531 236.922 297.656C236.703 297.812 236.594 297.906 236.594 297.938L236.125 298.594L235 310.453C234.906 311.266 234.672 312.25 234.297 313.406C233.953 314.562 233.484 315.672 232.891 316.734C232.297 317.797 231.562 318.688 230.688 319.406C229.844 320.156 228.875 320.531 227.781 320.531C227.469 320.531 227.188 320.484 226.938 320.391C226.719 320.328 226.5 320.156 226.281 319.875ZM227.875 315.281C227.906 315.562 227.938 315.969 227.969 316.5C228.031 317.031 228.141 317.469 228.297 317.812C228.891 317.656 229.438 317.219 229.938 316.5C230.438 315.812 230.859 315.031 231.203 314.156C231.547 313.281 231.828 312.406 232.047 311.531C232.266 310.688 232.406 310.031 232.469 309.562C232.594 308.844 232.688 308.156 232.75 307.5C232.844 306.875 232.922 306.266 232.984 305.672C233.047 305.109 233.094 304.547 233.125 303.984C233.156 303.422 233.172 302.812 233.172 302.156C233.172 302.062 233.156 301.844 233.125 301.5C233.125 301.188 233.125 300.984 233.125 300.891C232.281 301.984 231.578 303.094 231.016 304.219C230.453 305.344 229.969 306.484 229.562 307.641C229.188 308.828 228.859 310.047 228.578 311.297C228.328 312.578 228.094 313.906 227.875 315.281ZM226.75 290.109C226.844 290.359 226.969 290.578 227.125 290.766C227.312 290.953 227.562 291.047 227.875 291.047C229.156 291.047 230.297 290.781 231.297 290.25C232.328 289.688 233.234 288.969 234.016 288.094C234.797 287.219 235.469 286.266 236.031 285.234C236.625 284.203 237.125 283.172 237.531 282.141V281.953C237.031 280.922 236.453 280.266 235.797 279.984C235.172 279.672 234.5 279.625 233.781 279.844C233.094 280.031 232.391 280.438 231.672 281.062C230.953 281.656 230.266 282.344 229.609 283.125C228.984 283.875 228.422 284.672 227.922 285.516C227.422 286.359 227.031 287.141 226.75 287.859C226.469 288.547 226.312 289.109 226.281 289.547C226.25 289.984 226.406 290.172 226.75 290.109ZM248.078 287.156C248.109 287 248.203 286.719 248.359 286.312C248.516 285.906 248.672 285.469 248.828 285C249.016 284.531 249.188 284.094 249.344 283.688C249.5 283.281 249.609 283 249.672 282.844C249.859 282.344 250.031 282.016 250.188 281.859C250.375 281.703 250.703 281.625 251.172 281.625C251.672 281.625 252 281.797 252.156 282.141C252.312 282.484 252.391 282.891 252.391 283.359C252.391 284.172 252.266 284.922 252.016 285.609C251.797 286.266 251.547 286.938 251.266 287.625C250.984 288.281 250.719 289 250.469 289.781C250.25 290.531 250.141 291.406 250.141 292.406C250.141 292.531 250.141 292.719 250.141 292.969C250.141 293.188 250.156 293.422 250.188 293.672C250.219 293.891 250.281 294.094 250.375 294.281C250.469 294.438 250.594 294.516 250.75 294.516C251.562 294.516 252.375 294.359 253.188 294.047C254.031 293.703 254.844 293.312 255.625 292.875C256.438 292.406 257.203 291.906 257.922 291.375C258.672 290.812 259.344 290.328 259.938 289.922C260.156 289.766 260.312 289.609 260.406 289.453C260.531 289.297 260.641 289.156 260.734 289.031C260.828 288.875 260.938 288.75 261.062 288.656C261.219 288.531 261.453 288.469 261.766 288.469C262.172 288.469 262.5 288.562 262.75 288.75C263.031 288.906 263.172 289.203 263.172 289.641C263.172 289.828 263.156 290 263.125 290.156C263.125 290.312 263.047 290.453 262.891 290.578C262.859 290.672 262.734 290.797 262.516 290.953C262.328 291.109 262.125 291.281 261.906 291.469C261.688 291.625 261.484 291.781 261.297 291.938C261.109 292.062 260.969 292.141 260.875 292.172C260.844 292.172 260.75 292.219 260.594 292.312C260.469 292.375 260.391 292.406 260.359 292.406C260.328 292.438 260.281 292.484 260.219 292.547C260.188 292.578 260.172 292.609 260.172 292.641C259.516 293.141 258.797 293.656 258.016 294.188C257.266 294.688 256.469 295.156 255.625 295.594C254.781 296 253.906 296.344 253 296.625C252.125 296.906 251.25 297.047 250.375 297.047C249.625 297.047 249.047 296.859 248.641 296.484C248.266 296.078 247.984 295.578 247.797 294.984C247.609 294.391 247.5 293.766 247.469 293.109C247.438 292.453 247.422 291.859 247.422 291.328L248.078 287.156ZM250.328 274.828C250.328 274.266 250.438 273.891 250.656 273.703C250.875 273.516 251.266 273.422 251.828 273.422C252.109 273.422 252.391 273.484 252.672 273.609C252.953 273.703 253.094 273.953 253.094 274.359C253.094 274.766 252.891 275.141 252.484 275.484C252.109 275.828 251.734 276 251.359 276C250.984 276 250.719 275.891 250.562 275.672C250.406 275.422 250.328 275.141 250.328 274.828ZM264.203 296.062L265.797 286.688V285.375L266.734 279.141C266.828 279.016 267 278.953 267.25 278.953C267.5 278.922 267.672 278.906 267.766 278.906C268.016 278.906 268.297 279 268.609 279.188C268.953 279.344 269.125 279.562 269.125 279.844V283.031C269.25 282.938 269.469 282.75 269.781 282.469C270.094 282.188 270.422 281.891 270.766 281.578C271.141 281.266 271.484 280.969 271.797 280.688C272.109 280.406 272.312 280.203 272.406 280.078C272.75 279.766 273.156 279.5 273.625 279.281C274.125 279.062 274.594 278.953 275.031 278.953C275.938 278.953 276.641 279.234 277.141 279.797C277.672 280.359 277.938 281.078 277.938 281.953C277.938 282.016 277.922 282.062 277.891 282.094C277.891 282.094 277.891 282.125 277.891 282.188V282.375L276.109 290.391V294.188C277.078 294.188 278.078 294 279.109 293.625C280.172 293.219 281.188 292.719 282.156 292.125C283.125 291.531 284.031 290.859 284.875 290.109C285.719 289.328 286.453 288.578 287.078 287.859H287.266C287.484 287.859 287.656 287.938 287.781 288.094C287.938 288.219 288.016 288.391 288.016 288.609C288.016 289.297 287.781 289.984 287.312 290.672C286.875 291.328 286.297 291.953 285.578 292.547C284.891 293.141 284.078 293.703 283.141 294.234C282.234 294.766 281.328 295.219 280.422 295.594C279.547 295.969 278.688 296.266 277.844 296.484C277 296.703 276.281 296.812 275.688 296.812C275.094 296.812 274.625 296.703 274.281 296.484C273.938 296.266 273.672 295.984 273.484 295.641C273.328 295.266 273.219 294.859 273.156 294.422C273.125 293.984 273.109 293.516 273.109 293.016V292.406L274.938 283.312V281.766C274.188 281.766 273.438 282.094 272.688 282.75C271.969 283.406 271.312 284.203 270.719 285.141C270.156 286.078 269.656 287.031 269.219 288C268.812 288.969 268.516 289.766 268.328 290.391C268.266 290.609 268.172 291 268.047 291.562C267.922 292.125 267.797 292.719 267.672 293.344C267.578 293.969 267.484 294.562 267.391 295.125C267.297 295.688 267.234 296.094 267.203 296.344C267.234 296.531 267.172 296.672 267.016 296.766C266.891 296.859 266.734 296.938 266.547 297C266.359 297.031 266.156 297.047 265.938 297.047C265.75 297.047 265.594 297.047 265.469 297.047C265.188 297.047 264.906 297 264.625 296.906C264.344 296.812 264.203 296.578 264.203 296.203V296.062Z" fill="#191919"/>
<rect x="147.355" y="118" width="24.3871" height="45.9773" fill="#191919"/>
<path d="M160 237V140.493V129.72L149.161 131.515C149.613 131.515 146 144.532 118.903 152.163C107.613 156.652 104 165.181 104 180.442V237H160Z" fill="#191919"/>
<path d="M160 237V140.493V129.72L170.839 131.515C170.387 131.515 174 144.532 201.097 152.163C212.387 156.652 216 165.181 216 180.442V237H160Z" fill="#191919"/>
<defs>
<filter id="filter0_i" x="0" y="-10" width="320" height="364" filterUnits="userSpaceOnUse" color-interpolation-filters="sRGB">
<feFlood flood-opacity="0" result="BackgroundImageFix"/>
<feBlend mode="normal" in="SourceGraphic" in2="BackgroundImageFix" result="shape"/>
<feColorMatrix in="SourceAlpha" type="matrix" values="0 0 0 0 0 0 0 0 0 0 0 0 0 0 0 0 0 0 127 0" result="hardAlpha"/>
<feMorphology radius="34" operator="erode" in="SourceAlpha" result="effect1_innerShadow"/>
<feOffset dy="-10"/>
<feGaussianBlur stdDeviation="15"/>
<feComposite in2="hardAlpha" operator="arithmetic" k2="-1" k3="1"/>
<feColorMatrix type="matrix" values="0 0 0 0 0 0 0 0 0 0 0 0 0 0 0 0 0 0 0.05 0"/>
<feBlend mode="normal" in2="shape" result="effect1_innerShadow"/>
</filter>
</defs>
</svg>
