<svg width="319" height="353" viewBox="0 0 319 353" fill="none" xmlns="http://www.w3.org/2000/svg">
<rect width="319" height="353" fill="#C4C4C4"/>
<path d="M55.8906 281.875C55.9844 281.094 56.1094 280.359 56.2656 279.672C56.4219 278.953 56.5938 278.25 56.7812 277.562C56.9688 276.875 57.1719 276.172 57.3906 275.453C57.6406 274.703 57.9062 273.859 58.1875 272.922V272.688C56.9375 273.406 56.0469 273.766 55.5156 273.766C55.0156 273.766 54.7656 273.578 54.7656 273.203C54.7344 272.828 54.8906 272.328 55.2344 271.703C55.6094 271.078 56.0469 270.5 56.5469 269.969C57.0781 269.438 57.6094 269.016 58.1406 268.703C58.7031 268.391 59.1406 268.344 59.4531 268.562C59.8281 268.562 60.125 268.625 60.3438 268.75C60.5938 268.875 60.8594 269.062 61.1406 269.312C61.8594 268.75 62.5312 268.297 63.1562 267.953C63.7812 267.609 64.5312 267.438 65.4062 267.438C66.7812 267.438 67.8125 267.75 68.5 268.375C69.2188 269 69.7344 270 70.0469 271.375C70.5781 270.844 71.0625 270.359 71.5 269.922C71.9375 269.453 72.4062 269.062 72.9062 268.75C73.4375 268.406 74 268.156 74.5938 268C75.1875 267.812 75.8594 267.719 76.6094 267.719C77.2344 267.719 77.8438 267.953 78.4375 268.422C79.0312 268.891 79.4531 269.406 79.7031 269.969C79.7031 270.094 79.7031 270.375 79.7031 270.812C79.7031 271.25 79.7031 271.547 79.7031 271.703C79.7031 272.766 79.5781 273.797 79.3281 274.797C79.0781 275.766 78.9531 276.766 78.9531 277.797C78.9531 278.234 79 278.688 79.0938 279.156C79.2188 279.594 79.5625 279.812 80.125 279.812C80.875 279.812 81.5469 279.656 82.1406 279.344C82.7656 279.031 83.3281 278.656 83.8281 278.219C84.3594 277.75 84.8281 277.25 85.2344 276.719C85.6719 276.188 86.0625 275.703 86.4062 275.266C86.7812 274.797 87.125 274.406 87.4375 274.094C87.75 273.781 88.0625 273.625 88.375 273.625C88.5938 273.625 88.8281 273.719 89.0781 273.906C89.3594 274.062 89.5 274.266 89.5 274.516C89.5 274.547 89.4844 274.594 89.4531 274.656C89.4531 274.719 89.4531 274.766 89.4531 274.797C89.1406 275.766 88.6875 276.688 88.0938 277.562C87.5 278.438 86.8125 279.219 86.0312 279.906C85.25 280.562 84.375 281.094 83.4062 281.5C82.4688 281.875 81.4688 282.062 80.4062 282.062C79.4062 282.062 78.5625 281.938 77.875 281.688C77.1875 281.406 76.6562 280.781 76.2812 279.812C76.2812 279.719 76.2656 279.516 76.2344 279.203C76.2344 278.859 76.2344 278.656 76.2344 278.594C76.2344 277.406 76.3438 276.266 76.5625 275.172C76.8125 274.078 76.9375 272.969 76.9375 271.844C76.9375 271.75 76.9219 271.547 76.8906 271.234C76.8906 270.922 76.8906 270.719 76.8906 270.625C76.7656 270.469 76.5625 270.391 76.2812 270.391C76.0312 270.391 75.7969 270.391 75.5781 270.391C74.9219 270.391 74.2969 270.625 73.7031 271.094C73.1094 271.562 72.5625 272.156 72.0625 272.875C71.5625 273.594 71.1094 274.406 70.7031 275.312C70.3281 276.188 70 277.078 69.7188 277.984C69.4375 278.859 69.2031 279.688 69.0156 280.469C68.8594 281.219 68.7656 281.844 68.7344 282.344L68.2188 282.812H66.625C66.3438 282.812 66.1875 282.672 66.1562 282.391C66.1562 282.078 66.1562 281.844 66.1562 281.688C66.1562 280.938 66.2031 280.188 66.2969 279.438C66.4219 278.656 66.5469 277.891 66.6719 277.141C66.8281 276.359 66.9688 275.578 67.0938 274.797C67.2188 274.016 67.2969 273.25 67.3281 272.5C67.2969 272.25 67.2656 271.984 67.2344 271.703C67.2031 271.391 67.1406 271.109 67.0469 270.859C66.9531 270.609 66.8125 270.406 66.625 270.25C66.4375 270.062 66.1719 269.969 65.8281 269.969C65.3281 269.969 64.8438 270.062 64.375 270.25C63.9062 270.438 63.4688 270.688 63.0625 271C62.6875 271.281 62.3438 271.641 62.0312 272.078C61.75 272.484 61.5469 272.938 61.4219 273.438L58.6094 282.531L58.1875 283C58.1875 283 58.0938 283 57.9062 283C57.7188 283.031 57.5781 283.047 57.4844 283.047C57.1406 283.047 56.7812 283.016 56.4062 282.953C56.0625 282.859 55.8906 282.562 55.8906 282.062V281.875ZM87.9531 279.344C87.9531 279.312 87.9688 279.203 88 279.016C88.0312 278.828 88.0625 278.641 88.0938 278.453C88.125 278.234 88.1562 278.047 88.1875 277.891C88.2188 277.703 88.2344 277.578 88.2344 277.516V277.328V277.047L88.8906 274.094C89.4219 272.969 89.9688 271.891 90.5312 270.859C91.125 269.828 91.7969 268.922 92.5469 268.141C93.2969 267.359 94.1562 266.734 95.125 266.266C96.125 265.797 97.3281 265.562 98.7344 265.562C99.0156 265.562 99.3594 265.656 99.7656 265.844C100.203 266 100.625 266.203 101.031 266.453C101.469 266.703 101.859 266.969 102.203 267.25C102.578 267.5 102.859 267.734 103.047 267.953C104.016 267.797 104.719 267.719 105.156 267.719C105.594 267.688 105.969 267.672 106.281 267.672C106.594 267.641 106.922 267.578 107.266 267.484C107.641 267.391 108.203 267.188 108.953 266.875C109.484 266.719 110 266.641 110.5 266.641C110.719 266.641 110.922 266.734 111.109 266.922C111.328 267.109 111.438 267.328 111.438 267.578C111.438 267.891 111.328 268.172 111.109 268.422C110.891 268.672 110.625 268.828 110.312 268.891L104.453 270.203L103.938 270.438C103.906 272.125 103.531 273.734 102.812 275.266C102.094 276.797 101.141 278.141 99.9531 279.297C98.7656 280.453 97.3906 281.375 95.8281 282.062C94.2656 282.719 92.6406 283.047 90.9531 283.047C90.8281 283.047 90.625 283.031 90.3438 283C90.0625 283 89.875 283 89.7812 283C89.0938 282.719 88.6094 282.203 88.3281 281.453C88.0781 280.703 87.9531 280 87.9531 279.344ZM90.9531 280.281C90.9844 280.438 91.1094 280.516 91.3281 280.516C91.5469 280.516 91.7031 280.516 91.7969 280.516C92.9219 280.516 94.0781 280.234 95.2656 279.672C96.4531 279.078 97.5156 278.328 98.4531 277.422C99.4219 276.484 100.203 275.438 100.797 274.281C101.422 273.094 101.734 271.906 101.734 270.719C100.734 270.719 99.7344 270.641 98.7344 270.484C97.7344 270.297 96.7656 270.203 95.8281 270.203H95.7812L91.8906 274.328C91.6719 274.547 91.5 274.844 91.375 275.219C91.25 275.594 91.1562 276 91.0938 276.438C91.0312 276.875 90.9844 277.312 90.9531 277.75C90.9219 278.188 90.9062 278.578 90.9062 278.922C90.9062 279.016 90.9062 279.234 90.9062 279.578C90.9062 279.922 90.9219 280.156 90.9531 280.281ZM110.641 279.344C110.641 279.312 110.656 279.203 110.688 279.016C110.719 278.828 110.75 278.641 110.781 278.453C110.812 278.234 110.844 278.047 110.875 277.891C110.906 277.703 110.922 277.578 110.922 277.516V277.328V277.047L111.578 274.094C112.109 272.969 112.656 271.891 113.219 270.859C113.812 269.828 114.484 268.922 115.234 268.141C115.984 267.359 116.844 266.734 117.812 266.266C118.812 265.797 120.016 265.562 121.422 265.562C121.703 265.562 122.047 265.656 122.453 265.844C122.891 266 123.312 266.203 123.719 266.453C124.156 266.703 124.547 266.969 124.891 267.25C125.266 267.5 125.547 267.734 125.734 267.953C126.703 267.797 127.406 267.719 127.844 267.719C128.281 267.688 128.656 267.672 128.969 267.672C129.281 267.641 129.609 267.578 129.953 267.484C130.328 267.391 130.891 267.188 131.641 266.875C132.172 266.719 132.688 266.641 133.188 266.641C133.406 266.641 133.609 266.734 133.797 266.922C134.016 267.109 134.125 267.328 134.125 267.578C134.125 267.891 134.016 268.172 133.797 268.422C133.578 268.672 133.312 268.828 133 268.891L127.141 270.203L126.625 270.438C126.594 272.125 126.219 273.734 125.5 275.266C124.781 276.797 123.828 278.141 122.641 279.297C121.453 280.453 120.078 281.375 118.516 282.062C116.953 282.719 115.328 283.047 113.641 283.047C113.516 283.047 113.312 283.031 113.031 283C112.75 283 112.562 283 112.469 283C111.781 282.719 111.297 282.203 111.016 281.453C110.766 280.703 110.641 280 110.641 279.344ZM113.641 280.281C113.672 280.438 113.797 280.516 114.016 280.516C114.234 280.516 114.391 280.516 114.484 280.516C115.609 280.516 116.766 280.234 117.953 279.672C119.141 279.078 120.203 278.328 121.141 277.422C122.109 276.484 122.891 275.438 123.484 274.281C124.109 273.094 124.422 271.906 124.422 270.719C123.422 270.719 122.422 270.641 121.422 270.484C120.422 270.297 119.453 270.203 118.516 270.203H118.469L114.578 274.328C114.359 274.547 114.188 274.844 114.062 275.219C113.938 275.594 113.844 276 113.781 276.438C113.719 276.875 113.672 277.312 113.641 277.75C113.609 278.188 113.594 278.578 113.594 278.922C113.594 279.016 113.594 279.234 113.594 279.578C113.594 279.922 113.609 280.156 113.641 280.281ZM133 282.062L134.594 272.688V271.375L135.531 265.141C135.625 265.016 135.797 264.953 136.047 264.953C136.297 264.922 136.469 264.906 136.562 264.906C136.812 264.906 137.094 265 137.406 265.188C137.75 265.344 137.922 265.562 137.922 265.844V269.031C138.047 268.938 138.266 268.75 138.578 268.469C138.891 268.188 139.219 267.891 139.562 267.578C139.938 267.266 140.281 266.969 140.594 266.688C140.906 266.406 141.109 266.203 141.203 266.078C141.547 265.766 141.953 265.5 142.422 265.281C142.922 265.062 143.391 264.953 143.828 264.953C144.734 264.953 145.438 265.234 145.938 265.797C146.469 266.359 146.734 267.078 146.734 267.953C146.734 268.016 146.719 268.062 146.688 268.094C146.688 268.094 146.688 268.125 146.688 268.188V268.375L144.906 276.391V280.188C145.875 280.188 146.875 280 147.906 279.625C148.969 279.219 149.984 278.719 150.953 278.125C151.922 277.531 152.828 276.859 153.672 276.109C154.516 275.328 155.25 274.578 155.875 273.859H156.062C156.281 273.859 156.453 273.938 156.578 274.094C156.734 274.219 156.812 274.391 156.812 274.609C156.812 275.297 156.578 275.984 156.109 276.672C155.672 277.328 155.094 277.953 154.375 278.547C153.688 279.141 152.875 279.703 151.938 280.234C151.031 280.766 150.125 281.219 149.219 281.594C148.344 281.969 147.484 282.266 146.641 282.484C145.797 282.703 145.078 282.812 144.484 282.812C143.891 282.812 143.422 282.703 143.078 282.484C142.734 282.266 142.469 281.984 142.281 281.641C142.125 281.266 142.016 280.859 141.953 280.422C141.922 279.984 141.906 279.516 141.906 279.016V278.406L143.734 269.312V267.766C142.984 267.766 142.234 268.094 141.484 268.75C140.766 269.406 140.109 270.203 139.516 271.141C138.953 272.078 138.453 273.031 138.016 274C137.609 274.969 137.312 275.766 137.125 276.391C137.062 276.609 136.969 277 136.844 277.562C136.719 278.125 136.594 278.719 136.469 279.344C136.375 279.969 136.281 280.562 136.188 281.125C136.094 281.688 136.031 282.094 136 282.344C136.031 282.531 135.969 282.672 135.812 282.766C135.688 282.859 135.531 282.938 135.344 283C135.156 283.031 134.953 283.047 134.734 283.047C134.547 283.047 134.391 283.047 134.266 283.047C133.984 283.047 133.703 283 133.422 282.906C133.141 282.812 133 282.578 133 282.203V282.062ZM156.859 276.391C156.609 276.516 156.344 276.594 156.062 276.625C155.781 276.625 155.5 276.625 155.219 276.625C154.938 276.625 154.656 276.641 154.375 276.672C154.094 276.672 153.812 276.734 153.531 276.859C153 276.922 152.656 276.891 152.5 276.766C152.344 276.609 152.297 276.406 152.359 276.156C152.422 275.906 152.594 275.625 152.875 275.312C153.156 275 153.484 274.734 153.859 274.516C154.203 274.297 154.578 274.141 154.984 274.047C155.422 273.953 155.812 273.969 156.156 274.094C156 273.531 156.016 273.047 156.203 272.641C156.391 272.234 156.766 272.031 157.328 272.031C157.609 272.031 157.859 272.062 158.078 272.125C158.328 272.156 158.516 272.281 158.641 272.5C159.109 272.219 159.734 271.75 160.516 271.094C161.297 270.406 162.094 269.719 162.906 269.031C163.75 268.312 164.516 267.688 165.203 267.156C165.891 266.594 166.359 266.312 166.609 266.312C166.703 266.312 166.828 266.328 166.984 266.359C167.141 266.359 167.297 266.391 167.453 266.453C167.641 266.516 167.781 266.594 167.875 266.688C168 266.75 168.062 266.859 168.062 267.016V269.031C167.844 269.906 167.625 270.734 167.406 271.516C167.219 272.266 167.047 273.016 166.891 273.766C166.766 274.484 166.672 275.219 166.609 275.969C166.547 276.719 166.516 277.516 166.516 278.359C167.016 278.359 167.609 278.25 168.297 278.031C169.016 277.812 169.734 277.547 170.453 277.234C171.172 276.922 171.844 276.609 172.469 276.297C173.094 275.953 173.594 275.672 173.969 275.453C174.031 275.422 174.172 275.312 174.391 275.125C174.609 274.938 174.844 274.75 175.094 274.562C175.344 274.344 175.578 274.156 175.797 274C176.047 273.812 176.203 273.688 176.266 273.625C176.328 273.562 176.484 273.484 176.734 273.391C176.984 273.266 177.125 273.188 177.156 273.156C177.281 273.125 177.391 273.172 177.484 273.297C177.609 273.391 177.719 273.516 177.812 273.672C177.906 273.797 177.969 273.938 178 274.094C178.062 274.219 178.094 274.297 178.094 274.328C178.094 274.641 177.969 274.953 177.719 275.266C177.469 275.578 177.172 275.875 176.828 276.156C176.484 276.406 176.125 276.656 175.75 276.906C175.406 277.125 175.141 277.328 174.953 277.516C174.703 277.641 174.266 277.844 173.641 278.125C173.047 278.406 172.406 278.703 171.719 279.016C171.031 279.328 170.375 279.625 169.75 279.906C169.156 280.188 168.734 280.391 168.484 280.516C168.422 280.547 168.281 280.594 168.062 280.656C167.844 280.688 167.609 280.75 167.359 280.844C167.109 280.938 166.859 281.016 166.609 281.078C166.391 281.109 166.25 281.141 166.188 281.172C165.906 281.266 165.688 281.422 165.531 281.641C165.406 281.859 165.266 282.078 165.109 282.297C164.984 282.516 164.812 282.703 164.594 282.859C164.406 283.016 164.094 283.062 163.656 283C163.625 282.969 163.484 282.906 163.234 282.812C163.016 282.688 162.875 282.594 162.812 282.531C162.062 282 161.422 281.5 160.891 281.031C160.359 280.562 159.875 280.109 159.438 279.672C159 279.203 158.578 278.703 158.172 278.172C157.797 277.641 157.359 277.047 156.859 276.391ZM159.812 274.516C160.031 274.984 160.234 275.438 160.422 275.875C160.641 276.312 160.891 276.734 161.172 277.141C161.453 277.516 161.766 277.844 162.109 278.125C162.484 278.406 162.938 278.578 163.469 278.641C163.531 278.172 163.609 277.609 163.703 276.953C163.797 276.297 163.906 275.609 164.031 274.891C164.156 274.172 164.297 273.469 164.453 272.781C164.641 272.062 164.844 271.438 165.062 270.906H164.594C164.094 271.25 163.625 271.594 163.188 271.938C162.781 272.25 162.375 272.562 161.969 272.875C161.562 273.156 161.234 273.406 160.984 273.625C160.953 273.656 160.906 273.703 160.844 273.766C160.781 273.828 160.734 273.859 160.703 273.859C160.672 273.922 160.531 274.031 160.281 274.188C160.031 274.344 159.875 274.453 159.812 274.516ZM165.062 270.203C164.969 270.203 164.922 270.281 164.922 270.438C164.922 270.562 164.969 270.625 165.062 270.625C165.188 270.625 165.25 270.562 165.25 270.438C165.25 270.281 165.188 270.203 165.062 270.203ZM186.719 272.453C186.656 272.328 186.547 272.156 186.391 271.938C186.266 271.688 186.109 271.562 185.922 271.562C185.328 271.562 184.719 271.828 184.094 272.359C183.5 272.859 182.922 273.469 182.359 274.188C181.828 274.875 181.359 275.578 180.953 276.297C180.578 277.016 180.344 277.578 180.25 277.984C180.125 278.391 180.062 278.875 180.062 279.438C180.062 280 180.016 280.531 179.922 281.031C179.859 281.531 179.688 281.953 179.406 282.297C179.156 282.641 178.703 282.812 178.047 282.812C177.641 282.812 177.359 282.734 177.203 282.578C177.078 282.391 177.016 282.094 177.016 281.688C177.234 280.188 177.422 278.953 177.578 277.984C177.766 277.016 177.922 276.172 178.047 275.453C178.203 274.703 178.344 273.984 178.469 273.297C178.625 272.578 178.797 271.719 178.984 270.719C179.172 269.719 179.375 268.5 179.594 267.062C179.812 265.594 180.078 263.734 180.391 261.484C180.391 261.016 180.422 260.359 180.484 259.516C180.547 258.641 180.656 257.719 180.812 256.75C181 255.75 181.234 254.75 181.516 253.75C181.797 252.719 182.141 251.797 182.547 250.984C182.984 250.172 183.484 249.516 184.047 249.016C184.609 248.484 185.266 248.219 186.016 248.219C186.547 248.219 186.969 248.406 187.281 248.781C187.625 249.125 187.875 249.547 188.031 250.047C188.219 250.547 188.328 251.078 188.359 251.641C188.391 252.172 188.406 252.609 188.406 252.953C188.406 253.734 188.344 254.484 188.219 255.203C188.094 255.891 187.938 256.594 187.75 257.312C187.562 258 187.359 258.703 187.141 259.422C186.922 260.109 186.734 260.797 186.578 261.484L183.578 267.203L181.891 270.859L182.125 271.375C182.781 270.594 183.453 270 184.141 269.594C184.828 269.156 185.688 268.906 186.719 268.844C187.188 268.812 187.578 268.953 187.891 269.266C188.234 269.578 188.516 269.984 188.734 270.484C188.953 270.953 189.109 271.438 189.203 271.938C189.328 272.438 189.406 272.844 189.438 273.156C189.438 273.344 189.422 273.641 189.391 274.047C189.359 274.453 189.328 274.922 189.297 275.453C189.266 275.984 189.234 276.547 189.203 277.141C189.203 277.703 189.234 278.234 189.297 278.734C189.359 279.234 189.484 279.672 189.672 280.047C189.891 280.391 190.172 280.594 190.516 280.656C191.734 280.5 192.812 280.297 193.75 280.047C194.719 279.766 195.562 279.391 196.281 278.922C197 278.422 197.594 277.797 198.062 277.047C198.562 276.297 198.938 275.375 199.188 274.281C199.406 273.969 199.719 273.812 200.125 273.812C200.594 273.812 200.891 273.984 201.016 274.328C201.172 274.672 201.25 275.047 201.25 275.453C201.25 276.703 200.844 277.812 200.031 278.781C199.25 279.719 198.25 280.5 197.031 281.125C195.812 281.75 194.5 282.234 193.094 282.578C191.688 282.891 190.391 283.047 189.203 283.047C188.453 283.047 187.938 282.797 187.656 282.297C187.375 281.766 187.203 281.141 187.141 280.422C187.109 279.672 187.109 278.922 187.141 278.172C187.172 277.422 187.172 276.812 187.141 276.344C187.141 276.188 187.125 275.938 187.094 275.594C187.062 275.219 187.016 274.828 186.953 274.422C186.922 274.016 186.875 273.625 186.812 273.25C186.75 272.875 186.719 272.609 186.719 272.453ZM182.875 261.203C182.875 261.297 182.875 261.453 182.875 261.672C182.875 261.891 182.875 262.094 182.875 262.281C182.906 262.469 182.922 262.641 182.922 262.797C182.922 262.953 182.922 263.047 182.922 263.078L183.156 263.312C183.469 263.125 183.75 262.797 184 262.328C184.281 261.859 184.531 261.297 184.75 260.641C184.969 259.984 185.156 259.297 185.312 258.578C185.5 257.828 185.656 257.094 185.781 256.375C185.906 255.656 186 255 186.062 254.406C186.156 253.812 186.203 253.328 186.203 252.953C186.203 252.828 186.188 252.594 186.156 252.25C186.156 251.906 186.141 251.703 186.109 251.641L185.875 251.172C185.125 251.766 184.547 252.469 184.141 253.281C183.734 254.094 183.438 254.938 183.25 255.812C183.062 256.688 182.953 257.594 182.922 258.531C182.891 259.469 182.875 260.359 182.875 261.203ZM200.641 273.156C200.672 273 200.766 272.719 200.922 272.312C201.078 271.906 201.234 271.469 201.391 271C201.578 270.531 201.75 270.094 201.906 269.688C202.062 269.281 202.172 269 202.234 268.844C202.422 268.344 202.594 268.016 202.75 267.859C202.938 267.703 203.266 267.625 203.734 267.625C204.234 267.625 204.562 267.797 204.719 268.141C204.875 268.484 204.953 268.891 204.953 269.359C204.953 270.172 204.828 270.922 204.578 271.609C204.359 272.266 204.109 272.938 203.828 273.625C203.547 274.281 203.281 275 203.031 275.781C202.812 276.531 202.703 277.406 202.703 278.406C202.703 278.531 202.703 278.719 202.703 278.969C202.703 279.188 202.719 279.422 202.75 279.672C202.781 279.891 202.844 280.094 202.938 280.281C203.031 280.438 203.156 280.516 203.312 280.516C204.125 280.516 204.938 280.359 205.75 280.047C206.594 279.703 207.406 279.312 208.188 278.875C209 278.406 209.766 277.906 210.484 277.375C211.234 276.812 211.906 276.328 212.5 275.922C212.719 275.766 212.875 275.609 212.969 275.453C213.094 275.297 213.203 275.156 213.297 275.031C213.391 274.875 213.5 274.75 213.625 274.656C213.781 274.531 214.016 274.469 214.328 274.469C214.734 274.469 215.062 274.562 215.312 274.75C215.594 274.906 215.734 275.203 215.734 275.641C215.734 275.828 215.719 276 215.688 276.156C215.688 276.312 215.609 276.453 215.453 276.578C215.422 276.672 215.297 276.797 215.078 276.953C214.891 277.109 214.688 277.281 214.469 277.469C214.25 277.625 214.047 277.781 213.859 277.938C213.672 278.062 213.531 278.141 213.438 278.172C213.406 278.172 213.312 278.219 213.156 278.312C213.031 278.375 212.953 278.406 212.922 278.406C212.891 278.438 212.844 278.484 212.781 278.547C212.75 278.578 212.734 278.609 212.734 278.641C212.078 279.141 211.359 279.656 210.578 280.188C209.828 280.688 209.031 281.156 208.188 281.594C207.344 282 206.469 282.344 205.562 282.625C204.688 282.906 203.812 283.047 202.938 283.047C202.188 283.047 201.609 282.859 201.203 282.484C200.828 282.078 200.547 281.578 200.359 280.984C200.172 280.391 200.062 279.766 200.031 279.109C200 278.453 199.984 277.859 199.984 277.328L200.641 273.156ZM202.891 260.828C202.891 260.266 203 259.891 203.219 259.703C203.438 259.516 203.828 259.422 204.391 259.422C204.672 259.422 204.953 259.484 205.234 259.609C205.516 259.703 205.656 259.953 205.656 260.359C205.656 260.766 205.453 261.141 205.047 261.484C204.672 261.828 204.297 262 203.922 262C203.547 262 203.281 261.891 203.125 261.672C202.969 261.422 202.891 261.141 202.891 260.828ZM216.766 282.062L218.359 272.688V271.375L219.297 265.141C219.391 265.016 219.562 264.953 219.812 264.953C220.062 264.922 220.234 264.906 220.328 264.906C220.578 264.906 220.859 265 221.172 265.188C221.516 265.344 221.688 265.562 221.688 265.844V269.031C221.812 268.938 222.031 268.75 222.344 268.469C222.656 268.188 222.984 267.891 223.328 267.578C223.703 267.266 224.047 266.969 224.359 266.688C224.672 266.406 224.875 266.203 224.969 266.078C225.312 265.766 225.719 265.5 226.188 265.281C226.688 265.062 227.156 264.953 227.594 264.953C228.5 264.953 229.203 265.234 229.703 265.797C230.234 266.359 230.5 267.078 230.5 267.953C230.5 268.016 230.484 268.062 230.453 268.094C230.453 268.094 230.453 268.125 230.453 268.188V268.375L228.672 276.391V280.188C229.641 280.188 230.641 280 231.672 279.625C232.734 279.219 233.75 278.719 234.719 278.125C235.688 277.531 236.594 276.859 237.438 276.109C238.281 275.328 239.016 274.578 239.641 273.859H239.828C240.047 273.859 240.219 273.938 240.344 274.094C240.5 274.219 240.578 274.391 240.578 274.609C240.578 275.297 240.344 275.984 239.875 276.672C239.438 277.328 238.859 277.953 238.141 278.547C237.453 279.141 236.641 279.703 235.703 280.234C234.797 280.766 233.891 281.219 232.984 281.594C232.109 281.969 231.25 282.266 230.406 282.484C229.562 282.703 228.844 282.812 228.25 282.812C227.656 282.812 227.188 282.703 226.844 282.484C226.5 282.266 226.234 281.984 226.047 281.641C225.891 281.266 225.781 280.859 225.719 280.422C225.688 279.984 225.672 279.516 225.672 279.016V278.406L227.5 269.312V267.766C226.75 267.766 226 268.094 225.25 268.75C224.531 269.406 223.875 270.203 223.281 271.141C222.719 272.078 222.219 273.031 221.781 274C221.375 274.969 221.078 275.766 220.891 276.391C220.828 276.609 220.734 277 220.609 277.562C220.484 278.125 220.359 278.719 220.234 279.344C220.141 279.969 220.047 280.562 219.953 281.125C219.859 281.688 219.797 282.094 219.766 282.344C219.797 282.531 219.734 282.672 219.578 282.766C219.453 282.859 219.297 282.938 219.109 283C218.922 283.031 218.719 283.047 218.5 283.047C218.312 283.047 218.156 283.047 218.031 283.047C217.75 283.047 217.469 283 217.188 282.906C216.906 282.812 216.766 282.578 216.766 282.203V282.062ZM238.703 275.688C238.766 275.5 238.859 275.172 238.984 274.703C239.141 274.203 239.281 273.672 239.406 273.109C239.562 272.547 239.688 272.016 239.781 271.516C239.906 270.984 240 270.625 240.062 270.438C240.25 269.688 240.469 268.875 240.719 268C241 267.125 241.375 266.312 241.844 265.562C242.312 264.812 242.906 264.203 243.625 263.734C244.375 263.234 245.297 262.984 246.391 262.984C246.797 262.984 247.078 263.141 247.234 263.453C247.422 263.734 247.578 264.047 247.703 264.391C247.703 264.516 247.703 264.75 247.703 265.094C247.734 265.406 247.75 265.625 247.75 265.75C247.75 267.094 247.609 268.281 247.328 269.312C247.078 270.344 246.672 271.297 246.109 272.172C245.578 273.047 244.922 273.875 244.141 274.656C243.359 275.406 242.469 276.203 241.469 277.047C241.438 277.141 241.391 277.297 241.328 277.516C241.266 277.734 241.234 277.891 241.234 277.984V278.078C241.234 278.641 241.328 279.094 241.516 279.438C241.703 279.781 241.953 280.062 242.266 280.281C242.609 280.469 242.984 280.594 243.391 280.656C243.828 280.688 244.297 280.703 244.797 280.703C246.266 280.703 247.672 280.5 249.016 280.094C250.359 279.688 251.594 279.031 252.719 278.125C252.875 277.969 253.062 277.75 253.281 277.469C253.531 277.156 253.781 276.844 254.031 276.531C254.281 276.219 254.547 275.953 254.828 275.734C255.109 275.484 255.406 275.359 255.719 275.359C256.031 275.359 256.219 275.484 256.281 275.734C256.344 275.984 256.375 276.234 256.375 276.484C256.375 277.172 256.156 277.828 255.719 278.453C255.312 279.047 254.766 279.594 254.078 280.094C253.422 280.562 252.656 280.984 251.781 281.359C250.938 281.734 250.094 282.047 249.25 282.297C248.406 282.547 247.594 282.734 246.812 282.859C246.062 282.984 245.422 283.047 244.891 283.047C243.234 283.047 241.844 282.781 240.719 282.25C239.625 281.688 238.875 280.578 238.469 278.922L238.703 275.688ZM245.406 266.453C244.781 267.016 244.281 267.531 243.906 268C243.562 268.438 243.281 268.906 243.062 269.406C242.875 269.875 242.703 270.391 242.547 270.953C242.422 271.516 242.281 272.172 242.125 272.922C242.719 272.453 243.203 271.984 243.578 271.516C243.984 271.047 244.312 270.562 244.562 270.062C244.812 269.562 245 269.031 245.125 268.469C245.25 267.875 245.344 267.203 245.406 266.453Z" fill="#191919"/>
<path d="M89.0007 130.343L89 224H154.025V41H135.447C134.208 41.6162 134.535 44.697 135.447 44.697C134.208 44.697 133.589 48.3939 135.447 49.6263C135.447 76.1212 126.157 75.3351 111.914 84.1313C93.9543 95.2222 89.0007 109.394 89.0007 130.343Z" fill="#191919"/>
<path d="M210.999 130.343L211 224H145.975V41H164.553C165.792 41.6162 165.465 44.697 164.553 44.697C165.792 44.697 166.411 48.3939 164.553 49.6263C164.553 76.1212 173.843 75.3351 188.086 84.1313C206.046 95.2222 210.999 109.394 210.999 130.343Z" fill="#191919"/>
</svg>
