<svg width="450" height="188" viewBox="0 0 450 188" fill="none" xmlns="http://www.w3.org/2000/svg">
<path d="M44.0312 92.2188C44.0312 95.4688 43.4271 98.1458 42.2188 100.25C41.0104 102.354 39.3021 104.01 37.0938 105.219C34.9062 106.427 32.2812 107.271 29.2188 107.75C26.1562 108.208 22.7708 108.438 19.0625 108.438H17.4062V126H4.9375V75.0625H19.9375C23.6875 75.0625 27.0417 75.3333 30 75.875C32.9583 76.3958 35.4583 77.3125 37.5 78.625C39.5625 79.9375 41.1458 81.6979 42.25 83.9062C43.375 86.1146 43.9688 88.8854 44.0312 92.2188ZM19.0312 101.125C20.7604 101.125 22.3854 101 23.9062 100.75C25.4479 100.479 26.7917 100.01 27.9375 99.3438C29.0833 98.6771 29.9896 97.7812 30.6562 96.6562C31.3229 95.5104 31.6562 94.0625 31.6562 92.3125C31.6562 90.5 31.3958 88.9896 30.875 87.7812C30.375 86.5521 29.625 85.5833 28.625 84.875C27.6458 84.1458 26.4271 83.6354 24.9688 83.3438C23.5312 83.0312 21.8646 82.875 19.9688 82.875H17.4062V101.125H19.0312ZM85.9938 103.469H68.8688V126H56.4V75.0625H68.8688V95.8125H85.9938V75.0625H98.4625V126H85.9938V103.469ZM140.613 75.0625L157.644 126H145.206L141.675 114.812H126.613L123.081 126H110.644L127.425 75.0625H140.613ZM128.206 109.094H140.613L134.363 90.3125L128.206 109.094ZM182.856 96.875C185.169 96.875 187.2 96.7917 188.95 96.625C190.721 96.4583 192.19 96.1146 193.356 95.5938C194.544 95.0729 195.44 94.3438 196.044 93.4062C196.648 92.4479 196.95 91.1979 196.95 89.6562C196.95 88.2812 196.742 87.1562 196.325 86.2812C195.908 85.4062 195.221 84.7188 194.262 84.2188C193.304 83.7188 192.033 83.375 190.45 83.1875C188.887 82.9792 186.95 82.875 184.637 82.875H182.294V96.875H182.856ZM194.106 100.656C196.356 100.885 198.44 101.271 200.356 101.812C202.273 102.333 203.919 103.094 205.294 104.094C206.69 105.094 207.783 106.375 208.575 107.938C209.367 109.5 209.762 111.427 209.762 113.719V126H197.45V112.875C197.45 111.25 197.2 109.896 196.7 108.812C196.2 107.708 195.46 106.833 194.481 106.188C193.502 105.521 192.294 105.052 190.856 104.781C189.419 104.51 187.762 104.375 185.887 104.375H182.294V126H169.825V75.0625H183.2C186.7 75.0625 189.773 75.1875 192.419 75.4375C195.085 75.6875 197.387 76.0625 199.325 76.5625C201.262 77.0625 202.867 77.6875 204.137 78.4375C205.429 79.1667 206.46 80.0208 207.231 81C208.002 81.9583 208.544 83.0417 208.856 84.25C209.19 85.4583 209.356 86.7708 209.356 88.1875C209.356 90.4375 208.981 92.3333 208.231 93.875C207.481 95.3958 206.429 96.6354 205.075 97.5938C203.721 98.5521 202.106 99.2708 200.231 99.75C198.377 100.208 196.335 100.51 194.106 100.656ZM234.413 92.125V126H224.163V75.0625H238.538L250.913 112.219L263.819 75.0625H278.225V126H267.975V92.125L257.038 126H245.475L234.413 92.125ZM320.375 75.0625L337.406 126H324.969L321.438 114.812H306.375L302.844 126H290.406L307.188 75.0625H320.375ZM307.969 109.094H320.375L314.125 90.3125L307.969 109.094ZM360.337 100.719C360.337 106.51 361.275 110.823 363.15 113.656C365.046 116.49 367.869 117.906 371.619 117.906C373.452 117.906 375.254 117.646 377.025 117.125C378.796 116.583 380.608 115.667 382.462 114.375L385.806 123.125C385.181 123.667 384.348 124.167 383.306 124.625C382.285 125.083 381.108 125.479 379.775 125.812C378.462 126.146 377.015 126.406 375.431 126.594C373.848 126.781 372.181 126.875 370.431 126.875C366.952 126.875 363.827 126.292 361.056 125.125C358.285 123.958 355.931 122.25 353.994 120C352.056 117.75 350.567 114.979 349.525 111.688C348.483 108.396 347.962 104.625 347.962 100.375C347.962 96.0417 348.473 92.2396 349.494 88.9688C350.535 85.6979 352.025 82.9688 353.962 80.7812C355.9 78.5938 358.254 76.9583 361.025 75.875C363.796 74.7708 366.921 74.2188 370.4 74.2188C371.608 74.2188 372.89 74.2812 374.244 74.4062C375.598 74.5104 376.952 74.7188 378.306 75.0312C379.66 75.3229 380.983 75.7188 382.275 76.2188C383.587 76.7188 384.796 77.3542 385.9 78.125L382.494 86.875C381.39 86.1667 380.358 85.5729 379.4 85.0938C378.442 84.6146 377.504 84.2396 376.587 83.9688C375.692 83.6771 374.806 83.4688 373.931 83.3438C373.077 83.2188 372.202 83.1562 371.306 83.1562C369.431 83.1562 367.806 83.4896 366.431 84.1562C365.056 84.8021 363.91 85.8333 362.994 87.25C362.098 88.6667 361.431 90.4896 360.994 92.7188C360.556 94.9271 360.337 97.5938 360.337 100.719ZM422.925 75.0625H435.55L419.112 109.156V126H407.362V109.156L391.144 75.0625H403.55L413.206 96.0938L422.925 75.0625Z" fill="black"/>
<path d="M4.9375 54V3.0625H17.375V46.1562H39.2188V54H4.9375ZM89.8112 45.9375C91.2696 45.9375 92.4987 45.7708 93.4987 45.4375C94.4987 45.0833 95.3112 44.5938 95.9362 43.9688C96.5821 43.3229 97.0717 42.5521 97.405 41.6562C97.7383 40.7396 97.9779 39.7188 98.1237 38.5938C98.2696 37.4688 98.3529 36.25 98.3737 34.9375C98.3946 33.6042 98.405 32.2083 98.405 30.75V3.0625H110.842V30.625C110.842 34.6875 110.447 38.2396 109.655 41.2812C108.884 44.3021 107.655 46.8229 105.967 48.8438C104.28 50.8438 102.103 52.3542 99.4362 53.375C96.7696 54.375 93.5508 54.875 89.78 54.875C86.03 54.875 82.8217 54.375 80.155 53.375C77.5092 52.3542 75.3425 50.8438 73.655 48.8438C71.9675 46.8229 70.7279 44.3021 69.9362 41.2812C69.1446 38.2396 68.7487 34.6875 68.7487 30.625V3.0625H81.2175V30.75C81.2175 32.2083 81.2175 33.5938 81.2175 34.9062C81.2383 36.2188 81.3112 37.4375 81.4362 38.5625C81.5821 39.6875 81.8217 40.7083 82.155 41.625C82.4883 42.5417 82.9675 43.3229 83.5925 43.9688C84.2383 44.5938 85.0612 45.0833 86.0612 45.4375C87.0612 45.7708 88.3112 45.9375 89.8112 45.9375ZM156.31 28.7188C156.31 34.5104 157.247 38.8229 159.122 41.6562C161.018 44.4896 163.841 45.9062 167.591 45.9062C169.425 45.9062 171.227 45.6458 172.997 45.125C174.768 44.5833 176.581 43.6667 178.435 42.375L181.779 51.125C181.154 51.6667 180.32 52.1667 179.279 52.625C178.258 53.0833 177.081 53.4792 175.747 53.8125C174.435 54.1458 172.987 54.4062 171.404 54.5938C169.82 54.7812 168.154 54.875 166.404 54.875C162.925 54.875 159.8 54.2917 157.029 53.125C154.258 51.9583 151.904 50.25 149.966 48C148.029 45.75 146.539 42.9792 145.497 39.6875C144.456 36.3958 143.935 32.625 143.935 28.375C143.935 24.0417 144.445 20.2396 145.466 16.9688C146.508 13.6979 147.997 10.9688 149.935 8.78125C151.872 6.59375 154.227 4.95833 156.997 3.875C159.768 2.77083 162.893 2.21875 166.372 2.21875C167.581 2.21875 168.862 2.28125 170.216 2.40625C171.57 2.51042 172.925 2.71875 174.279 3.03125C175.633 3.32292 176.956 3.71875 178.247 4.21875C179.56 4.71875 180.768 5.35417 181.872 6.125L178.466 14.875C177.362 14.1667 176.331 13.5729 175.372 13.0938C174.414 12.6146 173.477 12.2396 172.56 11.9688C171.664 11.6771 170.779 11.4688 169.904 11.3438C169.05 11.2188 168.175 11.1562 167.279 11.1562C165.404 11.1562 163.779 11.4896 162.404 12.1562C161.029 12.8021 159.883 13.8333 158.966 15.25C158.07 16.6667 157.404 18.4896 156.966 20.7188C156.529 22.9271 156.31 25.5938 156.31 28.7188ZM225.746 54H213.277V3.0625H225.746V24.9375H227.934L241.871 3.0625H254.934L237.777 28.4375L256.652 54H242.652L227.684 32.5938H225.746V54ZM311.057 3.0625H323.682L307.245 37.1562V54H295.495V37.1562L279.276 3.0625H291.682L301.339 24.0938L311.057 3.0625ZM348.275 3.0625H362.244V15.125C362.244 17.1042 361.89 18.75 361.181 20.0625C360.473 21.375 359.556 22.4688 358.431 23.3438C357.306 24.2188 356.035 24.9271 354.619 25.4688C353.223 26.0104 351.817 26.4896 350.4 26.9062L348.306 23.1875C349.348 22.8125 350.233 22.4271 350.962 22.0312C351.712 21.6354 352.317 21.1979 352.775 20.7188C353.254 20.2188 353.598 19.6562 353.806 19.0312C354.035 18.4062 354.15 17.6771 354.15 16.8438H348.275V3.0625ZM430.18 39.5C430.18 44.4583 428.576 48.2604 425.367 50.9062C422.18 53.5521 417.482 54.875 411.274 54.875C408.607 54.875 406.149 54.6146 403.899 54.0938C401.67 53.5938 399.722 53.0312 398.055 52.4062C396.117 51.6979 394.347 50.875 392.742 49.9375L395.367 41.2812C395.367 41.2812 395.649 41.3958 396.211 41.625C396.774 41.875 397.503 42.1771 398.399 42.5312C399.315 42.8646 400.357 43.2396 401.524 43.6562C402.711 44.0521 403.92 44.4271 405.149 44.7812C406.378 45.1146 407.576 45.3958 408.742 45.625C409.93 45.8542 411.003 45.9688 411.961 45.9688C414.232 45.9688 415.92 45.6458 417.024 45C418.128 44.3542 418.68 43.2292 418.68 41.625C418.68 41 418.607 40.4167 418.461 39.875C418.336 39.3333 418.117 38.8229 417.805 38.3438C417.492 37.8646 417.065 37.4271 416.524 37.0312C416.003 36.6354 415.336 36.2604 414.524 35.9062L401.586 30.4375C398.44 29.125 396.076 27.3229 394.492 25.0312C392.909 22.7188 392.117 19.9375 392.117 16.6875C392.117 15.0208 392.378 13.5104 392.899 12.1562C393.42 10.7812 394.128 9.5625 395.024 8.5C395.94 7.41667 397.003 6.48958 398.211 5.71875C399.44 4.92708 400.753 4.27083 402.149 3.75C403.565 3.22917 405.034 2.84375 406.555 2.59375C408.076 2.34375 409.586 2.21875 411.086 2.21875C412.795 2.21875 414.42 2.32292 415.961 2.53125C417.503 2.73958 418.93 3.01042 420.242 3.34375C421.555 3.65625 422.732 4 423.774 4.375C424.836 4.75 425.732 5.10417 426.461 5.4375C427.211 5.75 427.784 6.01042 428.18 6.21875L428.742 6.53125L425.867 14.625L425.305 14.375C424.951 14.2083 424.461 14 423.836 13.75C423.211 13.4792 422.461 13.1979 421.586 12.9062C420.732 12.5938 419.805 12.3125 418.805 12.0625C417.805 11.7917 416.753 11.5729 415.649 11.4062C414.545 11.2396 413.44 11.1562 412.336 11.1562C411.399 11.1562 410.399 11.1979 409.336 11.2812C408.295 11.3646 407.326 11.5625 406.43 11.875C405.555 12.1875 404.826 12.6458 404.242 13.25C403.659 13.8542 403.367 14.6771 403.367 15.7188C403.367 15.9688 403.378 16.25 403.399 16.5625C403.44 16.8542 403.576 17.1771 403.805 17.5312C404.034 17.8646 404.399 18.2188 404.899 18.5938C405.399 18.9688 406.117 19.3438 407.055 19.7188L418.68 24.4062C420.492 25.1354 422.107 25.9792 423.524 26.9375C424.961 27.8958 426.17 28.9896 427.149 30.2188C428.149 31.4479 428.899 32.8333 429.399 34.375C429.92 35.8958 430.18 37.6042 430.18 39.5Z" fill="black"/>
<path d="M21.54 165.752C23.028 166.184 24.168 166.94 24.96 168.02C25.776 169.1 26.184 170.432 26.184 172.016C26.184 174.2 25.404 175.916 23.844 177.164C22.308 178.388 20.16 179 17.4 179H5.772V153.368H17.04C19.68 153.368 21.756 153.968 23.268 155.168C24.78 156.344 25.536 157.976 25.536 160.064C25.536 161.408 25.176 162.584 24.456 163.592C23.76 164.576 22.788 165.296 21.54 165.752ZM10.308 164.168H16.284C19.5 164.168 21.108 162.968 21.108 160.568C21.108 159.368 20.712 158.468 19.92 157.868C19.128 157.268 17.916 156.968 16.284 156.968H10.308V164.168ZM16.896 175.4C18.576 175.4 19.8 175.1 20.568 174.5C21.36 173.9 21.756 172.952 21.756 171.656C21.756 170.336 21.36 169.364 20.568 168.74C19.8 168.116 18.576 167.804 16.896 167.804H10.308V175.4H16.896ZM48.3035 179.324C45.8315 179.324 43.6715 178.796 41.8235 177.74C39.9995 176.66 38.5835 175.136 37.5755 173.168C36.5915 171.176 36.0995 168.836 36.0995 166.148C36.0995 163.484 36.5915 161.168 37.5755 159.2C38.5595 157.208 39.9635 155.684 41.7875 154.628C43.6355 153.572 45.8075 153.044 48.3035 153.044C50.7995 153.044 52.9595 153.572 54.7835 154.628C56.6315 155.684 58.0355 157.208 58.9955 159.2C59.9795 161.168 60.4715 163.484 60.4715 166.148C60.4715 168.836 59.9795 171.176 58.9955 173.168C58.0115 175.136 56.6075 176.66 54.7835 177.74C52.9595 178.796 50.7995 179.324 48.3035 179.324ZM48.3035 175.616C50.6795 175.616 52.5275 174.8 53.8475 173.168C55.1675 171.536 55.8275 169.196 55.8275 166.148C55.8275 163.124 55.1675 160.808 53.8475 159.2C52.5275 157.568 50.6795 156.752 48.3035 156.752C45.9275 156.752 44.0795 157.556 42.7595 159.164C41.4395 160.772 40.7795 163.1 40.7795 166.148C40.7795 169.196 41.4395 171.536 42.7595 173.168C44.0795 174.8 45.9275 175.616 48.3035 175.616ZM82.9042 179.324C80.4322 179.324 78.2722 178.796 76.4242 177.74C74.6002 176.66 73.1842 175.136 72.1762 173.168C71.1922 171.176 70.7002 168.836 70.7002 166.148C70.7002 163.484 71.1922 161.168 72.1762 159.2C73.1602 157.208 74.5642 155.684 76.3882 154.628C78.2362 153.572 80.4082 153.044 82.9042 153.044C85.4002 153.044 87.5602 153.572 89.3842 154.628C91.2322 155.684 92.6363 157.208 93.5963 159.2C94.5802 161.168 95.0722 163.484 95.0722 166.148C95.0722 168.836 94.5802 171.176 93.5963 173.168C92.6123 175.136 91.2082 176.66 89.3842 177.74C87.5602 178.796 85.4002 179.324 82.9042 179.324ZM82.9042 175.616C85.2802 175.616 87.1282 174.8 88.4483 173.168C89.7683 171.536 90.4283 169.196 90.4283 166.148C90.4283 163.124 89.7683 160.808 88.4483 159.2C87.1282 157.568 85.2802 156.752 82.9042 156.752C80.5282 156.752 78.6802 157.556 77.3602 159.164C76.0402 160.772 75.3802 163.1 75.3802 166.148C75.3802 169.196 76.0402 171.536 77.3602 173.168C78.6802 174.8 80.5282 175.616 82.9042 175.616ZM123.422 175.292V179H104.594V175.616L117.77 157.076H104.594V153.368H123.026V156.716L109.778 175.292H123.422ZM133.804 153.368H150.94V157.04H138.34V164.132H150.184V167.804H138.34V175.328H150.94V179H133.804V153.368ZM186.369 179.324C184.401 179.324 182.553 179.06 180.825 178.532C179.121 178.004 177.669 177.248 176.469 176.264L178.053 172.88C179.301 173.816 180.597 174.512 181.941 174.968C183.309 175.4 184.797 175.616 186.405 175.616C188.181 175.616 189.549 175.304 190.509 174.68C191.493 174.056 191.985 173.18 191.985 172.052C191.985 171.092 191.529 170.36 190.617 169.856C189.729 169.328 188.253 168.836 186.189 168.38C182.973 167.684 180.633 166.784 179.169 165.68C177.705 164.576 176.973 162.968 176.973 160.856C176.973 159.344 177.381 158 178.197 156.824C179.013 155.648 180.165 154.724 181.653 154.052C183.165 153.38 184.905 153.044 186.873 153.044C188.673 153.044 190.377 153.32 191.985 153.872C193.617 154.4 194.949 155.144 195.981 156.104L194.433 159.488C192.153 157.664 189.633 156.752 186.873 156.752C185.217 156.752 183.909 157.1 182.949 157.796C181.989 158.468 181.509 159.392 181.509 160.568C181.509 161.576 181.929 162.344 182.769 162.872C183.633 163.4 185.097 163.892 187.161 164.348C189.297 164.852 191.037 165.404 192.381 166.004C193.725 166.58 194.757 167.336 195.477 168.272C196.197 169.184 196.557 170.336 196.557 171.728C196.557 173.264 196.149 174.608 195.333 175.76C194.517 176.888 193.341 177.764 191.805 178.388C190.269 179.012 188.457 179.324 186.369 179.324ZM218.537 179.324C216.065 179.324 213.905 178.796 212.057 177.74C210.233 176.66 208.817 175.136 207.809 173.168C206.825 171.176 206.333 168.836 206.333 166.148C206.333 163.484 206.825 161.168 207.809 159.2C208.793 157.208 210.197 155.684 212.021 154.628C213.869 153.572 216.041 153.044 218.537 153.044C221.033 153.044 223.193 153.572 225.017 154.628C226.865 155.684 228.269 157.208 229.229 159.2C230.213 161.168 230.705 163.484 230.705 166.148C230.705 168.836 230.213 171.176 229.229 173.168C228.245 175.136 226.841 176.66 225.017 177.74C223.193 178.796 221.033 179.324 218.537 179.324ZM218.537 175.616C220.913 175.616 222.761 174.8 224.081 173.168C225.401 171.536 226.061 169.196 226.061 166.148C226.061 163.124 225.401 160.808 224.081 159.2C222.761 157.568 220.913 156.752 218.537 156.752C216.161 156.752 214.313 157.556 212.993 159.164C211.673 160.772 211.013 163.1 211.013 166.148C211.013 169.196 211.673 171.536 212.993 173.168C214.313 174.8 216.161 175.616 218.537 175.616ZM241.762 153.368H246.406V175.184H258.394V179H241.762V153.368ZM268.206 153.368H277.638C281.838 153.368 285.09 154.484 287.394 156.716C289.722 158.948 290.886 162.092 290.886 166.148C290.886 170.228 289.722 173.396 287.394 175.652C285.09 177.884 281.838 179 277.638 179H268.206V153.368ZM277.35 175.22C283.254 175.22 286.206 172.196 286.206 166.148C286.206 160.148 283.254 157.148 277.35 157.148H272.85V175.22H277.35ZM340.427 153.368V179H335.819V167.876H322.679V179H318.107V153.368H322.679V164.096H335.819V153.368H340.427ZM352.286 153.368H369.422V157.04H356.822V164.132H368.666V167.804H356.822V175.328H369.422V179H352.286V153.368ZM401.092 179H396.196L392.92 170.468C392.632 169.676 392.188 169.124 391.588 168.812C390.988 168.5 390.208 168.344 389.248 168.344H384.604V179H379.996V153.368H390.976C393.88 153.368 396.088 154.004 397.6 155.276C399.112 156.548 399.868 158.372 399.868 160.748C399.868 162.452 399.412 163.904 398.5 165.104C397.612 166.28 396.34 167.12 394.684 167.624C396.196 167.936 397.288 168.992 397.96 170.792L401.092 179ZM390.328 164.744C392.08 164.744 393.376 164.42 394.216 163.772C395.056 163.124 395.476 162.14 395.476 160.82C395.476 159.524 395.056 158.564 394.216 157.94C393.4 157.292 392.104 156.968 390.328 156.968H384.532V164.744H390.328ZM411.574 153.368H428.71V157.04H416.11V164.132H427.954V167.804H416.11V175.328H428.71V179H411.574V153.368Z" fill="black"/>
</svg>
