<svg width="319" height="353" viewBox="0 0 319 353" fill="none" xmlns="http://www.w3.org/2000/svg">
<g filter="url(#filter0_i)">
<rect width="319" height="353" fill="#C4C4C4"/>
</g>
<path d="M86.6562 294.328C86.6562 293.234 86.7812 292.172 87.0312 291.141C87.2812 290.109 87.625 289.094 88.0625 288.094C88.3438 287.031 88.6562 286.047 89 285.141C89.3438 284.203 89.6875 283.406 90.0312 282.75C90.4062 282.062 90.7812 281.531 91.1562 281.156C91.5312 280.75 91.9219 280.547 92.3281 280.547C92.7344 280.547 93.0312 280.672 93.2188 280.922C93.4375 281.141 93.5469 281.453 93.5469 281.859V282.141L91.25 287.625C91.2188 287.688 91.1406 287.812 91.0156 288C90.8906 288.156 90.8281 288.266 90.8281 288.328V288.516C90.7656 288.672 90.6719 288.922 90.5469 289.266C90.4531 289.609 90.3438 289.984 90.2188 290.391C90.0938 290.766 89.9688 291.125 89.8438 291.469C89.75 291.812 89.6875 292.047 89.6562 292.172C89.5938 292.328 89.5469 292.578 89.5156 292.922C89.4844 293.266 89.4688 293.484 89.4688 293.578C89.4688 293.641 89.4844 293.766 89.5156 293.953C89.5469 294.109 89.5938 294.219 89.6562 294.281C90.8438 293.812 92.1094 293.109 93.4531 292.172C94.8281 291.203 96.1406 290.125 97.3906 288.938C98.6406 287.75 99.75 286.516 100.719 285.234C101.719 283.922 102.453 282.656 102.922 281.438C102.984 281.406 103.141 281.359 103.391 281.297C103.641 281.234 103.797 281.203 103.859 281.203C103.891 281.203 103.922 281.203 103.953 281.203C104.016 281.203 104.062 281.203 104.094 281.203C104.406 281.203 104.672 281.344 104.891 281.625C105.141 281.906 105.266 282.188 105.266 282.469C105.266 282.5 105.25 282.562 105.219 282.656C105.219 282.75 105.219 282.812 105.219 282.844C104.656 284.188 104.172 285.469 103.766 286.688C103.359 287.906 103.156 289.219 103.156 290.625C103.156 291.219 103.172 291.703 103.203 292.078C103.266 292.422 103.406 292.922 103.625 293.578C103.656 293.734 103.719 293.812 103.812 293.812C103.938 293.812 104.047 293.812 104.141 293.812C105.078 293.812 106.016 293.453 106.953 292.734C107.891 292.016 108.734 291.141 109.484 290.109C110.266 289.047 110.891 287.938 111.359 286.781C111.828 285.625 112.062 284.609 112.062 283.734C112.062 283.266 112.016 282.828 111.922 282.422C111.859 281.984 111.828 281.547 111.828 281.109C111.828 280.703 111.938 280.344 112.156 280.031C112.375 279.719 112.688 279.562 113.094 279.562C113.375 279.562 113.641 279.656 113.891 279.844C114.141 280 114.375 280.188 114.594 280.406C114.844 280.625 115.094 280.828 115.344 281.016C115.594 281.203 115.875 281.344 116.188 281.438C116.938 281.438 117.516 281.438 117.922 281.438C118.359 281.438 118.688 281.438 118.906 281.438C119.156 281.438 119.359 281.422 119.516 281.391C119.672 281.328 119.859 281.25 120.078 281.156C120.297 281.031 120.594 280.875 120.969 280.688C121.375 280.5 121.906 280.25 122.562 279.938C122.594 279.906 122.656 279.891 122.75 279.891C122.844 279.891 122.906 279.891 122.938 279.891C123.219 279.891 123.469 279.984 123.688 280.172C123.906 280.359 124.016 280.609 124.016 280.922C124.016 281.266 123.922 281.547 123.734 281.766C123.578 281.953 123.375 282.125 123.125 282.281C122.875 282.406 122.594 282.531 122.281 282.656C122 282.75 121.734 282.828 121.484 282.891C120.766 283.172 120.203 283.375 119.797 283.5C119.422 283.594 119.125 283.672 118.906 283.734C118.719 283.766 118.562 283.797 118.438 283.828C118.312 283.828 118.125 283.828 117.875 283.828C117.656 283.828 117.344 283.844 116.938 283.875C116.562 283.875 116.016 283.906 115.297 283.969C115.234 283.969 115.141 284 115.016 284.062C114.922 284.125 114.859 284.172 114.828 284.203C114.641 285.609 114.203 287.047 113.516 288.516C112.859 289.953 112 291.281 110.938 292.5C109.875 293.688 108.641 294.656 107.234 295.406C105.859 296.156 104.422 296.531 102.922 296.531C102.609 296.531 102.312 296.406 102.031 296.156C101.781 295.875 101.547 295.562 101.328 295.219C101.141 294.875 100.984 294.531 100.859 294.188C100.734 293.812 100.656 293.531 100.625 293.344C100.594 293.219 100.547 292.984 100.484 292.641C100.453 292.297 100.406 291.922 100.344 291.516C100.312 291.109 100.266 290.75 100.203 290.438C100.172 290.094 100.156 289.844 100.156 289.688C99.5938 290.281 98.8594 291 97.9531 291.844C97.0469 292.656 96.0625 293.453 95 294.234C93.9375 294.984 92.8594 295.641 91.7656 296.203C90.7031 296.734 89.7344 297 88.8594 297C88.0469 297 87.4688 296.719 87.125 296.156C86.8125 295.594 86.6562 294.984 86.6562 294.328ZM132.219 286.453C132.156 286.328 132.047 286.156 131.891 285.938C131.766 285.688 131.609 285.562 131.422 285.562C130.828 285.562 130.219 285.828 129.594 286.359C129 286.859 128.422 287.469 127.859 288.188C127.328 288.875 126.859 289.578 126.453 290.297C126.078 291.016 125.844 291.578 125.75 291.984C125.625 292.391 125.562 292.875 125.562 293.438C125.562 294 125.516 294.531 125.422 295.031C125.359 295.531 125.188 295.953 124.906 296.297C124.656 296.641 124.203 296.812 123.547 296.812C123.141 296.812 122.859 296.734 122.703 296.578C122.578 296.391 122.516 296.094 122.516 295.688C122.734 294.188 122.922 292.953 123.078 291.984C123.266 291.016 123.422 290.172 123.547 289.453C123.703 288.703 123.844 287.984 123.969 287.297C124.125 286.578 124.297 285.719 124.484 284.719C124.672 283.719 124.875 282.5 125.094 281.062C125.312 279.594 125.578 277.734 125.891 275.484C125.891 275.016 125.922 274.359 125.984 273.516C126.047 272.641 126.156 271.719 126.312 270.75C126.5 269.75 126.734 268.75 127.016 267.75C127.297 266.719 127.641 265.797 128.047 264.984C128.484 264.172 128.984 263.516 129.547 263.016C130.109 262.484 130.766 262.219 131.516 262.219C132.047 262.219 132.469 262.406 132.781 262.781C133.125 263.125 133.375 263.547 133.531 264.047C133.719 264.547 133.828 265.078 133.859 265.641C133.891 266.172 133.906 266.609 133.906 266.953C133.906 267.734 133.844 268.484 133.719 269.203C133.594 269.891 133.438 270.594 133.25 271.312C133.062 272 132.859 272.703 132.641 273.422C132.422 274.109 132.234 274.797 132.078 275.484L129.078 281.203L127.391 284.859L127.625 285.375C128.281 284.594 128.953 284 129.641 283.594C130.328 283.156 131.188 282.906 132.219 282.844C132.688 282.812 133.078 282.953 133.391 283.266C133.734 283.578 134.016 283.984 134.234 284.484C134.453 284.953 134.609 285.438 134.703 285.938C134.828 286.438 134.906 286.844 134.938 287.156C134.938 287.344 134.922 287.641 134.891 288.047C134.859 288.453 134.828 288.922 134.797 289.453C134.766 289.984 134.734 290.547 134.703 291.141C134.703 291.703 134.734 292.234 134.797 292.734C134.859 293.234 134.984 293.672 135.172 294.047C135.391 294.391 135.672 294.594 136.016 294.656C137.234 294.5 138.312 294.297 139.25 294.047C140.219 293.766 141.062 293.391 141.781 292.922C142.5 292.422 143.094 291.797 143.562 291.047C144.062 290.297 144.438 289.375 144.688 288.281C144.906 287.969 145.219 287.812 145.625 287.812C146.094 287.812 146.391 287.984 146.516 288.328C146.672 288.672 146.75 289.047 146.75 289.453C146.75 290.703 146.344 291.812 145.531 292.781C144.75 293.719 143.75 294.5 142.531 295.125C141.312 295.75 140 296.234 138.594 296.578C137.188 296.891 135.891 297.047 134.703 297.047C133.953 297.047 133.438 296.797 133.156 296.297C132.875 295.766 132.703 295.141 132.641 294.422C132.609 293.672 132.609 292.922 132.641 292.172C132.672 291.422 132.672 290.812 132.641 290.344C132.641 290.188 132.625 289.938 132.594 289.594C132.562 289.219 132.516 288.828 132.453 288.422C132.422 288.016 132.375 287.625 132.312 287.25C132.25 286.875 132.219 286.609 132.219 286.453ZM128.375 275.203C128.375 275.297 128.375 275.453 128.375 275.672C128.375 275.891 128.375 276.094 128.375 276.281C128.406 276.469 128.422 276.641 128.422 276.797C128.422 276.953 128.422 277.047 128.422 277.078L128.656 277.312C128.969 277.125 129.25 276.797 129.5 276.328C129.781 275.859 130.031 275.297 130.25 274.641C130.469 273.984 130.656 273.297 130.812 272.578C131 271.828 131.156 271.094 131.281 270.375C131.406 269.656 131.5 269 131.562 268.406C131.656 267.812 131.703 267.328 131.703 266.953C131.703 266.828 131.688 266.594 131.656 266.25C131.656 265.906 131.641 265.703 131.609 265.641L131.375 265.172C130.625 265.766 130.047 266.469 129.641 267.281C129.234 268.094 128.938 268.938 128.75 269.812C128.562 270.688 128.453 271.594 128.422 272.531C128.391 273.469 128.375 274.359 128.375 275.203ZM146.141 287.156C146.172 287 146.266 286.719 146.422 286.312C146.578 285.906 146.734 285.469 146.891 285C147.078 284.531 147.25 284.094 147.406 283.688C147.562 283.281 147.672 283 147.734 282.844C147.922 282.344 148.094 282.016 148.25 281.859C148.438 281.703 148.766 281.625 149.234 281.625C149.734 281.625 150.062 281.797 150.219 282.141C150.375 282.484 150.453 282.891 150.453 283.359C150.453 284.172 150.328 284.922 150.078 285.609C149.859 286.266 149.609 286.938 149.328 287.625C149.047 288.281 148.781 289 148.531 289.781C148.312 290.531 148.203 291.406 148.203 292.406C148.203 292.531 148.203 292.719 148.203 292.969C148.203 293.188 148.219 293.422 148.25 293.672C148.281 293.891 148.344 294.094 148.438 294.281C148.531 294.438 148.656 294.516 148.812 294.516C149.625 294.516 150.438 294.359 151.25 294.047C152.094 293.703 152.906 293.312 153.688 292.875C154.5 292.406 155.266 291.906 155.984 291.375C156.734 290.812 157.406 290.328 158 289.922C158.219 289.766 158.375 289.609 158.469 289.453C158.594 289.297 158.703 289.156 158.797 289.031C158.891 288.875 159 288.75 159.125 288.656C159.281 288.531 159.516 288.469 159.828 288.469C160.234 288.469 160.562 288.562 160.812 288.75C161.094 288.906 161.234 289.203 161.234 289.641C161.234 289.828 161.219 290 161.188 290.156C161.188 290.312 161.109 290.453 160.953 290.578C160.922 290.672 160.797 290.797 160.578 290.953C160.391 291.109 160.188 291.281 159.969 291.469C159.75 291.625 159.547 291.781 159.359 291.938C159.172 292.062 159.031 292.141 158.938 292.172C158.906 292.172 158.812 292.219 158.656 292.312C158.531 292.375 158.453 292.406 158.422 292.406C158.391 292.438 158.344 292.484 158.281 292.547C158.25 292.578 158.234 292.609 158.234 292.641C157.578 293.141 156.859 293.656 156.078 294.188C155.328 294.688 154.531 295.156 153.688 295.594C152.844 296 151.969 296.344 151.062 296.625C150.188 296.906 149.312 297.047 148.438 297.047C147.688 297.047 147.109 296.859 146.703 296.484C146.328 296.078 146.047 295.578 145.859 294.984C145.672 294.391 145.562 293.766 145.531 293.109C145.5 292.453 145.484 291.859 145.484 291.328L146.141 287.156ZM148.391 274.828C148.391 274.266 148.5 273.891 148.719 273.703C148.938 273.516 149.328 273.422 149.891 273.422C150.172 273.422 150.453 273.484 150.734 273.609C151.016 273.703 151.156 273.953 151.156 274.359C151.156 274.766 150.953 275.141 150.547 275.484C150.172 275.828 149.797 276 149.422 276C149.047 276 148.781 275.891 148.625 275.672C148.469 275.422 148.391 275.141 148.391 274.828ZM164.516 290.391C164.266 290.516 164 290.594 163.719 290.625C163.438 290.625 163.156 290.625 162.875 290.625C162.594 290.625 162.312 290.641 162.031 290.672C161.75 290.672 161.469 290.734 161.188 290.859C160.656 290.922 160.312 290.891 160.156 290.766C160 290.609 159.953 290.406 160.016 290.156C160.078 289.906 160.25 289.625 160.531 289.312C160.812 289 161.141 288.734 161.516 288.516C161.859 288.297 162.234 288.141 162.641 288.047C163.078 287.953 163.469 287.969 163.812 288.094C163.656 287.531 163.672 287.047 163.859 286.641C164.047 286.234 164.422 286.031 164.984 286.031C165.266 286.031 165.516 286.062 165.734 286.125C165.984 286.156 166.172 286.281 166.297 286.5C166.766 286.219 167.391 285.75 168.172 285.094C168.953 284.406 169.75 283.719 170.562 283.031C171.406 282.312 172.172 281.688 172.859 281.156C173.547 280.594 174.016 280.312 174.266 280.312C174.359 280.312 174.484 280.328 174.641 280.359C174.797 280.359 174.953 280.391 175.109 280.453C175.297 280.516 175.438 280.594 175.531 280.688C175.656 280.75 175.719 280.859 175.719 281.016V283.031C175.5 283.906 175.281 284.734 175.062 285.516C174.875 286.266 174.703 287.016 174.547 287.766C174.422 288.484 174.328 289.219 174.266 289.969C174.203 290.719 174.172 291.516 174.172 292.359C174.672 292.359 175.266 292.25 175.953 292.031C176.672 291.812 177.391 291.547 178.109 291.234C178.828 290.922 179.5 290.609 180.125 290.297C180.75 289.953 181.25 289.672 181.625 289.453C181.688 289.422 181.828 289.312 182.047 289.125C182.266 288.938 182.5 288.75 182.75 288.562C183 288.344 183.234 288.156 183.453 288C183.703 287.812 183.859 287.688 183.922 287.625C183.984 287.562 184.141 287.484 184.391 287.391C184.641 287.266 184.781 287.188 184.812 287.156C184.938 287.125 185.047 287.172 185.141 287.297C185.266 287.391 185.375 287.516 185.469 287.672C185.562 287.797 185.625 287.938 185.656 288.094C185.719 288.219 185.75 288.297 185.75 288.328C185.75 288.641 185.625 288.953 185.375 289.266C185.125 289.578 184.828 289.875 184.484 290.156C184.141 290.406 183.781 290.656 183.406 290.906C183.062 291.125 182.797 291.328 182.609 291.516C182.359 291.641 181.922 291.844 181.297 292.125C180.703 292.406 180.062 292.703 179.375 293.016C178.688 293.328 178.031 293.625 177.406 293.906C176.812 294.188 176.391 294.391 176.141 294.516C176.078 294.547 175.938 294.594 175.719 294.656C175.5 294.688 175.266 294.75 175.016 294.844C174.766 294.938 174.516 295.016 174.266 295.078C174.047 295.109 173.906 295.141 173.844 295.172C173.562 295.266 173.344 295.422 173.188 295.641C173.062 295.859 172.922 296.078 172.766 296.297C172.641 296.516 172.469 296.703 172.25 296.859C172.062 297.016 171.75 297.062 171.312 297C171.281 296.969 171.141 296.906 170.891 296.812C170.672 296.688 170.531 296.594 170.469 296.531C169.719 296 169.078 295.5 168.547 295.031C168.016 294.562 167.531 294.109 167.094 293.672C166.656 293.203 166.234 292.703 165.828 292.172C165.453 291.641 165.016 291.047 164.516 290.391ZM167.469 288.516C167.688 288.984 167.891 289.438 168.078 289.875C168.297 290.312 168.547 290.734 168.828 291.141C169.109 291.516 169.422 291.844 169.766 292.125C170.141 292.406 170.594 292.578 171.125 292.641C171.188 292.172 171.266 291.609 171.359 290.953C171.453 290.297 171.562 289.609 171.688 288.891C171.812 288.172 171.953 287.469 172.109 286.781C172.297 286.062 172.5 285.438 172.719 284.906H172.25C171.75 285.25 171.281 285.594 170.844 285.938C170.438 286.25 170.031 286.562 169.625 286.875C169.219 287.156 168.891 287.406 168.641 287.625C168.609 287.656 168.562 287.703 168.5 287.766C168.438 287.828 168.391 287.859 168.359 287.859C168.328 287.922 168.188 288.031 167.938 288.188C167.688 288.344 167.531 288.453 167.469 288.516ZM172.719 284.203C172.625 284.203 172.578 284.281 172.578 284.438C172.578 284.562 172.625 284.625 172.719 284.625C172.844 284.625 172.906 284.562 172.906 284.438C172.906 284.281 172.844 284.203 172.719 284.203ZM184.484 296.812C184.453 296.719 184.438 296.516 184.438 296.203C184.438 295.891 184.438 295.688 184.438 295.594C184.438 294.594 184.609 293.625 184.953 292.688C185.328 291.719 185.781 290.797 186.312 289.922L188.844 283.312L191.328 274.125L193.391 270.047C193.453 269.891 193.562 269.812 193.719 269.812C193.906 269.812 194.078 269.812 194.234 269.812C194.891 269.812 195.297 270.062 195.453 270.562C195.609 271.031 195.688 271.516 195.688 272.016C195.688 273.891 195.406 275.656 194.844 277.312C194.281 278.938 193.562 280.547 192.688 282.141C193.25 281.797 193.812 281.516 194.375 281.297C194.969 281.078 195.594 280.969 196.25 280.969C197.062 280.969 197.719 281.125 198.219 281.438C198.719 281.719 199.25 282.188 199.812 282.844C199.844 282.906 199.859 283.109 199.859 283.453C199.859 283.797 199.859 284.016 199.859 284.109C199.859 285.047 199.641 285.938 199.203 286.781C198.766 287.625 198.203 288.391 197.516 289.078C196.828 289.766 196.062 290.391 195.219 290.953C194.375 291.484 193.531 291.891 192.688 292.172V292.406C192.688 292.719 192.781 293 192.969 293.25C193.156 293.469 193.375 293.672 193.625 293.859C193.875 294.016 194.141 294.141 194.422 294.234C194.703 294.297 194.969 294.328 195.219 294.328C195.906 294.328 196.625 294.297 197.375 294.234C198.125 294.172 198.859 294.062 199.578 293.906C200.328 293.719 201.031 293.5 201.688 293.25C202.344 292.969 202.938 292.609 203.469 292.172C203.719 291.984 203.984 291.688 204.266 291.281C204.547 290.875 204.812 290.469 205.062 290.062C205.344 289.656 205.594 289.297 205.812 288.984C206.062 288.672 206.25 288.516 206.375 288.516C206.75 288.516 207.016 288.688 207.172 289.031C207.359 289.344 207.453 289.656 207.453 289.969C207.453 290 207.438 290.078 207.406 290.203C207.406 290.297 207.406 290.359 207.406 290.391C206.812 291.641 206.125 292.688 205.344 293.531C204.594 294.344 203.734 295 202.766 295.5C201.797 295.969 200.703 296.312 199.484 296.531C198.297 296.719 196.969 296.812 195.5 296.812C194.25 296.812 193.188 296.594 192.312 296.156C191.469 295.688 190.766 294.906 190.203 293.812C190.172 293.688 190.109 293.531 190.016 293.344C189.953 293.125 189.875 292.922 189.781 292.734C189.719 292.516 189.625 292.312 189.5 292.125C189.375 291.938 189.219 291.812 189.031 291.75L186.781 296.531C186.688 296.75 186.5 296.891 186.219 296.953C185.969 297.016 185.734 297.047 185.516 297.047C185.328 297.047 185.141 297.031 184.953 297C184.797 297 184.641 296.938 184.484 296.812ZM190.672 287.953C190.672 288.047 190.719 288.203 190.812 288.422C190.906 288.641 191.016 288.859 191.141 289.078C191.266 289.297 191.391 289.5 191.516 289.688C191.672 289.844 191.812 289.922 191.938 289.922C192.062 289.922 192.219 289.891 192.406 289.828C192.594 289.734 192.781 289.656 192.969 289.594C193.188 289.5 193.375 289.406 193.531 289.312C193.688 289.219 193.812 289.125 193.906 289.031C194 288.906 194.172 288.703 194.422 288.422C194.672 288.141 194.938 287.844 195.219 287.531C195.531 287.219 195.812 286.922 196.062 286.641C196.344 286.359 196.516 286.156 196.578 286.031C196.609 285.969 196.656 285.859 196.719 285.703C196.812 285.547 196.891 285.391 196.953 285.234C197.047 285.078 197.125 284.922 197.188 284.766C197.25 284.609 197.297 284.5 197.328 284.438C197.328 284.406 197.328 284.375 197.328 284.344C197.328 284.281 197.328 284.234 197.328 284.203C197.328 284.109 197.312 284.031 197.281 283.969C197.281 283.875 197.203 283.797 197.047 283.734H196.156C195.781 283.734 195.422 283.766 195.078 283.828C194.766 283.859 194.438 283.984 194.094 284.203C194 284.297 193.812 284.469 193.531 284.719C193.25 284.938 192.969 285.188 192.688 285.469C192.406 285.719 192.125 285.969 191.844 286.219C191.562 286.469 191.391 286.625 191.328 286.688C191.266 286.781 191.141 286.984 190.953 287.297C190.766 287.609 190.672 287.828 190.672 287.953ZM206.188 289.688C206.25 289.5 206.344 289.172 206.469 288.703C206.625 288.203 206.766 287.672 206.891 287.109C207.047 286.547 207.172 286.016 207.266 285.516C207.391 284.984 207.484 284.625 207.547 284.438C207.734 283.688 207.953 282.875 208.203 282C208.484 281.125 208.859 280.312 209.328 279.562C209.797 278.812 210.391 278.203 211.109 277.734C211.859 277.234 212.781 276.984 213.875 276.984C214.281 276.984 214.562 277.141 214.719 277.453C214.906 277.734 215.062 278.047 215.188 278.391C215.188 278.516 215.188 278.75 215.188 279.094C215.219 279.406 215.234 279.625 215.234 279.75C215.234 281.094 215.094 282.281 214.812 283.312C214.562 284.344 214.156 285.297 213.594 286.172C213.062 287.047 212.406 287.875 211.625 288.656C210.844 289.406 209.953 290.203 208.953 291.047C208.922 291.141 208.875 291.297 208.812 291.516C208.75 291.734 208.719 291.891 208.719 291.984V292.078C208.719 292.641 208.812 293.094 209 293.438C209.188 293.781 209.438 294.062 209.75 294.281C210.094 294.469 210.469 294.594 210.875 294.656C211.312 294.688 211.781 294.703 212.281 294.703C213.75 294.703 215.156 294.5 216.5 294.094C217.844 293.688 219.078 293.031 220.203 292.125C220.359 291.969 220.547 291.75 220.766 291.469C221.016 291.156 221.266 290.844 221.516 290.531C221.766 290.219 222.031 289.953 222.312 289.734C222.594 289.484 222.891 289.359 223.203 289.359C223.516 289.359 223.703 289.484 223.766 289.734C223.828 289.984 223.859 290.234 223.859 290.484C223.859 291.172 223.641 291.828 223.203 292.453C222.797 293.047 222.25 293.594 221.562 294.094C220.906 294.562 220.141 294.984 219.266 295.359C218.422 295.734 217.578 296.047 216.734 296.297C215.891 296.547 215.078 296.734 214.297 296.859C213.547 296.984 212.906 297.047 212.375 297.047C210.719 297.047 209.328 296.781 208.203 296.25C207.109 295.688 206.359 294.578 205.953 292.922L206.188 289.688ZM212.891 280.453C212.266 281.016 211.766 281.531 211.391 282C211.047 282.438 210.766 282.906 210.547 283.406C210.359 283.875 210.188 284.391 210.031 284.953C209.906 285.516 209.766 286.172 209.609 286.922C210.203 286.453 210.688 285.984 211.062 285.516C211.469 285.047 211.797 284.562 212.047 284.062C212.297 283.562 212.484 283.031 212.609 282.469C212.734 281.875 212.828 281.203 212.891 280.453ZM221.234 308.812C221.234 306.781 221.688 304.906 222.594 303.188C223.469 301.5 224.594 299.953 225.969 298.547C227.375 297.172 228.922 295.938 230.609 294.844C232.328 293.75 234 292.797 235.625 291.984L236.984 287.625C236.828 287.812 236.516 288.125 236.047 288.562C235.609 289 235.141 289.469 234.641 289.969C234.141 290.438 233.656 290.891 233.188 291.328C232.719 291.734 232.391 292.016 232.203 292.172C231.828 292.484 231.375 292.844 230.844 293.25C230.312 293.656 229.734 294.047 229.109 294.422C228.516 294.766 227.906 295.062 227.281 295.312C226.656 295.531 226.094 295.641 225.594 295.641C224.906 295.641 224.453 295.484 224.234 295.172C224.047 294.828 223.953 294.344 223.953 293.719C223.953 293.219 223.984 292.703 224.047 292.172C224.141 291.641 224.125 291.109 224 290.578L225.828 285.609C226.109 285.328 226.375 284.891 226.625 284.297C226.906 283.703 227.172 283.109 227.422 282.516C227.703 281.922 227.984 281.406 228.266 280.969C228.578 280.531 228.906 280.312 229.25 280.312C229.625 280.312 229.938 280.422 230.188 280.641C230.469 280.859 230.609 281.172 230.609 281.578C230.609 281.891 230.562 282.172 230.469 282.422C230.406 282.641 230.297 282.938 230.141 283.312C229.734 284.156 229.328 284.953 228.922 285.703C228.547 286.453 228.188 287.203 227.844 287.953C227.531 288.703 227.266 289.484 227.047 290.297C226.859 291.078 226.766 291.953 226.766 292.922H226.953C226.953 292.922 227.047 292.875 227.234 292.781C227.422 292.656 227.625 292.531 227.844 292.406C228.094 292.25 228.344 292.094 228.594 291.938C228.844 291.781 229.062 291.641 229.25 291.516C230.969 290.391 232.484 289.078 233.797 287.578C235.109 286.047 236.406 284.469 237.688 282.844C237.812 282.656 237.922 282.516 238.016 282.422C238.109 282.328 238.188 282.266 238.25 282.234C238.312 282.172 238.391 282.141 238.484 282.141C238.578 282.141 238.719 282.141 238.906 282.141C239.344 282.141 239.688 282.234 239.938 282.422C240.219 282.578 240.391 282.953 240.453 283.547C240.484 283.953 240.453 284.453 240.359 285.047C240.266 285.609 240.141 286.172 239.984 286.734C239.828 287.297 239.656 287.859 239.469 288.422C239.312 288.953 239.172 289.375 239.047 289.688V290.391C239.109 290.359 239.25 290.312 239.469 290.25C239.719 290.188 239.891 290.141 239.984 290.109C240.172 290.078 240.688 289.906 241.531 289.594C242.375 289.281 243.281 288.953 244.25 288.609C245.25 288.234 246.172 287.891 247.016 287.578C247.859 287.266 248.391 287.062 248.609 286.969H248.703C248.922 286.969 249.109 287.047 249.266 287.203C249.453 287.359 249.547 287.547 249.547 287.766C249.547 287.984 249.469 288.172 249.312 288.328C249.188 288.484 249.031 288.625 248.844 288.75C248.656 288.844 248.453 288.938 248.234 289.031C248.016 289.125 247.828 289.203 247.672 289.266C247.453 289.391 247.141 289.547 246.734 289.734C246.328 289.891 245.859 290.078 245.328 290.297C244.828 290.484 244.297 290.703 243.734 290.953C243.172 291.203 242.625 291.438 242.094 291.656C240.812 292.188 239.422 292.75 237.922 293.344L233.797 308.906C233.609 309.656 233.25 310.438 232.719 311.25C232.219 312.062 231.625 312.812 230.938 313.5C230.25 314.188 229.484 314.734 228.641 315.141C227.828 315.578 227 315.797 226.156 315.797C225.281 315.797 224.531 315.562 223.906 315.094C223.281 314.656 222.766 314.078 222.359 313.359C221.953 312.672 221.672 311.922 221.516 311.109C221.328 310.297 221.234 309.531 221.234 308.812ZM223.766 308.812C223.766 309.219 223.797 309.672 223.859 310.172C223.953 310.672 224.109 311.156 224.328 311.625C224.547 312.094 224.812 312.484 225.125 312.797C225.469 313.109 225.906 313.266 226.438 313.266C227.125 313.266 227.75 313.047 228.312 312.609C228.906 312.203 229.422 311.688 229.859 311.062C230.328 310.469 230.719 309.828 231.031 309.141C231.344 308.453 231.594 307.844 231.781 307.312C231.875 306.938 232.016 306.406 232.203 305.719C232.391 305.062 232.562 304.406 232.719 303.75C232.906 303.094 233.062 302.5 233.188 301.969C233.312 301.469 233.375 301.172 233.375 301.078V300.891L234.734 294.984C233.484 295.391 232.203 296.078 230.891 297.047C229.609 298.016 228.438 299.141 227.375 300.422C226.312 301.703 225.438 303.078 224.75 304.547C224.094 306.016 223.766 307.438 223.766 308.812Z" fill="#191919"/>
<path d="M122.004 111.5L125.517 238.5H172.034V96V60H147.033V91C144.019 96 121.67 103.667 122.004 111.5Z" fill="#191919"/>
<path d="M197.533 111.5L194.02 238.5H147.504V96V60H172.504V91C175.518 96 197.867 103.667 197.533 111.5Z" fill="#191919"/>
<defs>
<filter id="filter0_i" x="0" y="-10" width="319" height="363" filterUnits="userSpaceOnUse" color-interpolation-filters="sRGB">
<feFlood flood-opacity="0" result="BackgroundImageFix"/>
<feBlend mode="normal" in="SourceGraphic" in2="BackgroundImageFix" result="shape"/>
<feColorMatrix in="SourceAlpha" type="matrix" values="0 0 0 0 0 0 0 0 0 0 0 0 0 0 0 0 0 0 127 0" result="hardAlpha"/>
<feMorphology radius="34" operator="erode" in="SourceAlpha" result="effect1_innerShadow"/>
<feOffset dy="-10"/>
<feGaussianBlur stdDeviation="15"/>
<feComposite in2="hardAlpha" operator="arithmetic" k2="-1" k3="1"/>
<feColorMatrix type="matrix" values="0 0 0 0 0 0 0 0 0 0 0 0 0 0 0 0 0 0 0.05 0"/>
<feBlend mode="normal" in2="shape" result="effect1_innerShadow"/>
</filter>
</defs>
</svg>
